<svg width="83" height="47" viewBox="0 0 83 47" fill="none" xmlns="http://www.w3.org/2000/svg">
<path d="M0.92 46H8.984L13.592 35.184H34.776L39.32 46H47.64L27.928 0.879997H20.632L0.92 46ZM16.472 28.208L24.152 10.288L31.896 28.208H16.472ZM64.1545 46.704C69.3385 46.704 72.8585 44.528 75.1625 41.776V46H82.7145V25.968C82.7145 21.552 81.5625 18.032 79.0665 15.536C76.6345 13.04 72.9225 11.76 67.8665 11.76C62.4905 11.76 58.8425 12.912 55.0665 14.512L57.1785 20.592C60.2505 19.312 63.0025 18.48 66.8425 18.48C72.2825 18.48 75.2265 20.976 75.2265 25.84V26.672C72.6025 25.84 69.9785 25.264 66.1385 25.264C57.8825 25.264 52.1225 28.784 52.1225 36.144V36.272C52.1225 43.12 57.8185 46.704 64.1545 46.704ZM66.3305 41.072C62.5545 41.072 59.7385 39.216 59.7385 35.952V35.824C59.7385 32.24 62.6185 30.192 67.6745 30.192C70.7465 30.192 73.3705 30.768 75.3545 31.536V33.84C75.3545 38.192 71.4505 41.072 66.3305 41.072Z" fill="#40B2FF"/>
</svg>
