<svg width="116" height="115" viewBox="0 0 116 115" fill="none" xmlns="http://www.w3.org/2000/svg">
<g id="Frame" clip-path="url(#clip0_482_9109)">
<g id="Group">
<path id="Vector" d="M92.7521 96.5921L96.3435 100.633C99.445 97.9203 102.187 94.9539 104.558 91.7964L100.201 88.5872C98.048 91.4553 95.5669 94.1426 92.7521 96.5973V96.5921Z" fill="#FF2600"/>
<path id="Vector_2" d="M89.1606 92.5561L92.7521 96.5973C95.5617 94.1426 98.048 91.4501 100.201 88.5872L95.8431 85.3779C93.9145 87.9463 91.6887 90.3597 89.1659 92.5612L89.1606 92.5561Z" fill="#FF3B19"/>
<path id="Vector_3" d="M85.5691 88.5148L89.1605 92.556C91.6834 90.3545 93.9092 87.9412 95.8378 85.3727L91.4801 82.1635C89.7704 84.4374 87.8001 86.5717 85.5691 88.52V88.5148Z" fill="#FF5132"/>
<path id="Vector_4" d="M81.9829 84.4735L85.5744 88.5148C87.8053 86.5665 89.7757 84.4322 91.4854 82.1583L87.1277 78.9491C85.6421 80.9284 83.9272 82.7836 81.9881 84.4787L81.9829 84.4735Z" fill="#FF664C"/>
<path id="Vector_5" d="M78.3915 80.4374L81.9829 84.4787C83.922 82.7836 85.6369 80.9284 87.1225 78.9491L82.7648 75.7399C81.5034 77.4194 80.0439 79.0008 78.3967 80.4426L78.3915 80.4374Z" fill="#FF7C65"/>
<path id="Vector_6" d="M74.8 76.3962L78.3915 80.4375C80.0387 78.9957 81.4982 77.4195 82.7596 75.7347L78.4019 72.5255C77.3594 73.9105 76.1605 75.2128 74.8 76.3962Z" fill="#FF917E"/>
<path id="Vector_7" d="M71.2086 72.3601L74.8001 76.4014C76.1605 75.2127 77.3594 73.9156 78.4019 72.5306L74.0442 69.3214C73.2259 70.4118 72.2824 71.4351 71.2138 72.3653L71.2086 72.3601Z" fill="#FFA797"/>
<path id="Vector_8" d="M67.6172 68.3189L71.2086 72.3601C72.2772 71.4248 73.2207 70.4067 74.039 69.3163L69.6814 66.1071C69.0871 66.8977 68.3991 67.6471 67.6224 68.3241L67.6172 68.3189Z" fill="#FFBCB1"/>
<path id="Vector_9" d="M64.0256 64.2828L67.6171 68.3241C68.3937 67.6419 69.0818 66.8977 69.676 66.1071L65.3183 62.8978C64.943 63.3939 64.5156 63.859 64.0256 64.288V64.2828Z" fill="#FFD2CA"/>
<path id="Vector_10" d="M60.9607 59.6782C60.8095 59.8798 60.6375 60.0658 60.4395 60.2415L64.0309 64.2828C64.5209 63.859 64.9483 63.3887 65.3236 62.8926L60.9659 59.6834L60.9607 59.6782Z" fill="#FFE7E3"/>
</g>
<g id="Group_2">
<path id="Vector_11" d="M105.789 79.1973L110.725 81.4401C112.445 77.7141 113.733 73.9002 114.603 70.0502L109.302 68.8771C108.51 72.3654 107.347 75.8227 105.783 79.1973H105.789Z" fill="#FF5700"/>
<path id="Vector_12" d="M100.847 76.9544L105.783 79.1973C107.342 75.8175 108.51 72.3602 109.302 68.8771L104.001 67.704C103.292 70.8305 102.249 73.9312 100.847 76.9596V76.9544Z" fill="#FF6819"/>
<path id="Vector_13" d="M95.9109 74.7167L100.847 76.9596C102.244 73.9312 103.292 70.8305 104.001 67.704L98.6996 66.5309C98.0741 69.2957 97.1463 72.0398 95.9109 74.7219V74.7167Z" fill="#FF7832"/>
<path id="Vector_14" d="M90.9746 72.4738L95.9109 74.7167C97.1514 72.0346 98.0741 69.2956 98.6996 66.5256L93.3984 65.3525C92.8511 67.7556 92.0484 70.1431 90.9694 72.4738H90.9746Z" fill="#FF894C"/>
<path id="Vector_15" d="M86.0383 70.231L90.9746 72.4738C92.0536 70.1431 92.8563 67.7556 93.4037 65.3525L88.1025 64.1794C87.6386 66.2259 86.9557 68.2517 86.0383 70.2362V70.231Z" fill="#FF9965"/>
<path id="Vector_16" d="M81.1021 67.9882L86.0383 70.231C86.9557 68.2466 87.6386 66.2208 88.1025 64.1743L82.8013 63.0012C82.4208 64.6859 81.8579 66.3603 81.1021 67.9934V67.9882Z" fill="#FFAA7E"/>
<path id="Vector_17" d="M76.1658 65.7453L81.1021 67.9881C81.8579 66.3551 82.4208 64.6859 82.8013 62.996L77.5002 61.8229C77.1979 63.1458 76.7548 64.4636 76.1658 65.7453Z" fill="#FFBA97"/>
<path id="Vector_18" d="M71.2242 63.5077L76.1605 65.7505C76.7547 64.4689 77.1978 63.1511 77.4949 61.8281L72.1937 60.655C71.9748 61.6214 71.6516 62.5775 71.219 63.5128L71.2242 63.5077Z" fill="#FFCBB1"/>
<path id="Vector_19" d="M66.288 61.2648L71.2242 63.5076C71.6569 62.5722 71.9801 61.6162 72.199 60.6498L66.8978 59.4767C66.7623 60.0813 66.559 60.6808 66.288 61.2648Z" fill="#FFDBCA"/>
<path id="Vector_20" d="M61.5967 58.2985C61.5393 58.5414 61.4611 58.7842 61.3517 59.022L66.288 61.2648C66.559 60.6808 66.7623 60.0814 66.8978 59.4767L61.5967 58.3036V58.2985Z" fill="#FFECE3"/>
</g>
<g id="Group_3">
<path id="Vector_21" d="M100.19 88.5768L104.548 91.786C107.014 88.4941 109.072 85.0265 110.73 81.4452L105.794 79.2023C104.287 82.4477 102.426 85.5898 100.19 88.5716V88.5768Z" fill="#FF3B00"/>
<path id="Vector_22" d="M95.8326 85.3624L100.19 88.5716C102.427 85.5898 104.293 82.4477 105.794 79.2023L100.858 76.9595C99.5075 79.869 97.8343 82.6906 95.8326 85.3624Z" fill="#FF4E19"/>
<path id="Vector_23" d="M91.475 82.1532L95.8327 85.3624C97.8343 82.6855 99.5075 79.869 100.858 76.9595L95.9213 74.7167C94.7276 77.2903 93.2472 79.7863 91.475 82.1532Z" fill="#FF6232"/>
<path id="Vector_24" d="M87.1121 78.9439L91.4697 82.1531C93.242 79.7862 94.7224 77.2954 95.9161 74.7166L90.9798 72.4738C89.9425 74.7166 88.655 76.8819 87.1121 78.9387V78.9439Z" fill="#FF754C"/>
<path id="Vector_25" d="M82.7544 75.7347L87.1121 78.9439C88.655 76.8871 89.9425 74.7166 90.9798 72.4789L86.0435 70.2361C85.1626 72.143 84.068 73.9828 82.7544 75.7347Z" fill="#FF8865"/>
<path id="Vector_26" d="M78.3966 72.5204L82.7543 75.7296C84.0679 73.9777 85.1625 72.1379 86.0434 70.231L81.1071 67.9882C80.3826 69.5592 79.4808 71.0785 78.3966 72.5204Z" fill="#FF9C7E"/>
<path id="Vector_27" d="M74.0389 69.311L78.3966 72.5203C79.4756 71.0785 80.3774 69.5591 81.1072 67.9881L76.1709 65.7452C75.5975 66.9804 74.8886 68.1741 74.0389 69.3059V69.311Z" fill="#FFAF97"/>
<path id="Vector_28" d="M69.676 66.1018L74.0337 69.3111C74.8834 68.1793 75.5923 66.9855 76.1656 65.7504L71.2294 63.5076C70.8124 64.4068 70.2963 65.275 69.676 66.1018Z" fill="#FFC2B1"/>
<path id="Vector_29" d="M65.3184 62.8874L69.676 66.0966C70.2963 65.2698 70.8124 64.4016 71.2294 63.5024L66.2931 61.2595C66.0325 61.8228 65.7093 62.3654 65.3236 62.8874H65.3184Z" fill="#FFD6CA"/>
<path id="Vector_30" d="M61.3516 59.0219C61.2474 59.2493 61.1171 59.4715 60.9607 59.6782L65.3184 62.8874C65.7041 62.3707 66.0273 61.8229 66.2879 61.2596L61.3516 59.0167V59.0219Z" fill="#FFE9E3"/>
</g>
<g id="Group_4">
<path id="Vector_31" d="M109.292 68.8719L114.593 70.045C115.494 66.0451 115.953 62.0452 116 58.1073L110.569 58.0504C110.527 61.6214 110.11 65.2441 109.292 68.8719Z" fill="#FF7900"/>
<path id="Vector_32" d="M103.995 67.6987L109.297 68.8718C110.115 65.244 110.532 61.6214 110.574 58.0504L105.142 57.9935C105.106 61.1976 104.73 64.443 104.001 67.6987H103.995Z" fill="#FF8619"/>
<path id="Vector_33" d="M98.6943 66.5257L103.995 67.6988C104.73 64.4482 105.101 61.1977 105.137 57.9936L99.7056 57.9368C99.6743 60.7687 99.3407 63.6472 98.6943 66.5206V66.5257Z" fill="#FF9332"/>
<path id="Vector_34" d="M93.3932 65.3474L98.6943 66.5205C99.3459 63.642 99.6743 60.7687 99.7056 57.9367L94.2741 57.8799C94.2428 60.3449 93.9561 62.8462 93.3932 65.3474Z" fill="#FFA14C"/>
<path id="Vector_35" d="M88.0973 64.1743L93.3984 65.3474C93.9614 62.8461 94.2481 60.3449 94.2794 57.8798L88.8479 57.823C88.8218 59.9211 88.5821 62.0451 88.0973 64.1743Z" fill="#FFAE65"/>
<path id="Vector_36" d="M82.7961 62.996L88.0973 64.1691C88.5769 62.04 88.8218 59.916 88.8479 57.8178L83.4164 57.761C83.3956 59.487 83.1975 61.2389 82.8014 62.9908L82.7961 62.996Z" fill="#FFBB7E"/>
<path id="Vector_37" d="M77.495 61.823L82.7962 62.9961C83.1923 61.2442 83.3904 59.4923 83.4112 57.7662L77.9798 57.7094C77.9641 59.0685 77.8077 60.4431 77.495 61.823Z" fill="#FFC897"/>
<path id="Vector_38" d="M72.199 60.6498L77.5001 61.8229C77.8129 60.4431 77.9693 59.0685 77.9849 57.7093L72.5534 57.6525C72.543 58.6395 72.4283 59.6421 72.199 60.6498Z" fill="#FFD6B1"/>
<path id="Vector_39" d="M66.8978 59.4715L72.199 60.6446C72.4231 59.6421 72.5378 58.6395 72.5534 57.6473L67.122 57.5905C67.1168 58.2106 67.0438 58.8411 66.903 59.4664L66.8978 59.4715Z" fill="#FFE3CA"/>
<path id="Vector_40" d="M61.6853 57.5388C61.6853 57.792 61.654 58.0453 61.5967 58.2985L66.8978 59.4716C67.0386 58.8411 67.1116 58.2158 67.1168 57.5957L61.6853 57.5388Z" fill="#FFF0E3"/>
</g>
<g id="Group_5">
<path id="Vector_41" d="M110.558 58.0504L115.99 58.1073C116.031 54.0092 115.646 50.0041 114.864 46.1385L109.542 47.2031C110.251 50.7069 110.605 54.3347 110.563 58.0504H110.558Z" fill="#FF8700"/>
<path id="Vector_42" d="M105.127 57.9936L110.558 58.0504C110.6 54.3348 110.245 50.7069 109.536 47.2031L104.214 48.2677C104.85 51.4098 105.168 54.6655 105.132 57.9936H105.127Z" fill="#FF9319"/>
<path id="Vector_43" d="M99.6951 57.9367L105.127 57.9936C105.163 54.6603 104.845 51.4097 104.209 48.2677L98.8872 49.3323C99.4502 52.1126 99.7316 54.9911 99.7004 57.9367H99.6951Z" fill="#FF9F32"/>
<path id="Vector_44" d="M94.2689 57.8799L99.7004 57.9367C99.7316 54.9911 99.4502 52.1074 98.8872 49.3323L93.5652 50.3968C94.0552 52.8154 94.3002 55.3166 94.2689 57.8799Z" fill="#FFAB4C"/>
<path id="Vector_45" d="M88.8374 57.823L94.2689 57.8799C94.2949 55.3166 94.0499 52.8102 93.5652 50.3969L88.2432 51.4614C88.6602 53.5182 88.8687 55.6474 88.8426 57.8282L88.8374 57.823Z" fill="#FFB765"/>
<path id="Vector_46" d="M83.406 57.7662L88.8375 57.8231C88.8583 55.6423 88.655 53.5131 88.238 51.4563L82.916 52.5209C83.26 54.2159 83.4268 55.9678 83.4112 57.7662H83.406Z" fill="#FFC27E"/>
<path id="Vector_47" d="M77.9745 57.7094L83.4059 57.7662C83.4268 55.9678 83.2548 54.2159 82.9107 52.5209L77.5887 53.5855C77.8598 54.9188 77.9901 56.2986 77.9797 57.7094H77.9745Z" fill="#FFCE97"/>
<path id="Vector_48" d="M72.5482 57.6525L77.9797 57.7094C77.9953 56.2986 77.8598 54.9188 77.5887 53.5854L72.2667 54.65C72.4648 55.6216 72.5586 56.6241 72.5482 57.6525Z" fill="#FFDAB1"/>
<path id="Vector_49" d="M67.1167 57.5957L72.5482 57.6525C72.5586 56.6241 72.4596 55.6216 72.2667 54.65L66.9447 55.7146C67.0698 56.3244 67.1271 56.9497 67.1219 57.5957H67.1167Z" fill="#FFE6CA"/>
<path id="Vector_50" d="M61.6123 56.7792C61.6644 57.0272 61.6853 57.2805 61.6853 57.5388L67.1168 57.5957C67.122 56.9497 67.0646 56.3192 66.9395 55.7146L61.6123 56.7792Z" fill="#FFF2E3"/>
</g>
<g id="Group_6">
<path id="Vector_51" d="M109.526 47.2082L114.848 46.1436C114.03 42.1231 112.81 38.2885 111.236 34.671L106.253 36.8105C107.681 40.0921 108.786 43.57 109.526 47.2082Z" fill="#FF9300"/>
<path id="Vector_52" d="M104.204 48.2728L109.526 47.2082C108.786 43.5649 107.681 40.087 106.252 36.8105L101.269 38.95C102.552 41.8905 103.542 45.0119 104.204 48.278V48.2728Z" fill="#FF9E19"/>
<path id="Vector_53" d="M98.8767 49.3322L104.199 48.2677C103.537 45.0016 102.541 41.8854 101.264 38.9397L96.2809 41.0792C97.412 43.6838 98.2929 46.4382 98.8767 49.3322Z" fill="#FFA832"/>
<path id="Vector_54" d="M93.5548 50.3967L98.8768 49.3321C98.2878 46.4433 97.4121 43.6837 96.2809 41.0791L91.2977 43.2186C92.2829 45.4821 93.0439 47.88 93.5548 50.3967Z" fill="#FFB34C"/>
<path id="Vector_55" d="M88.2328 51.4613L93.5548 50.3968C93.044 47.8852 92.2777 45.4821 91.2978 43.2186L86.3146 45.3581C87.1538 47.2806 87.8002 49.3219 88.238 51.4613H88.2328Z" fill="#FFBE65"/>
<path id="Vector_56" d="M82.9055 52.526L88.2275 51.4614C87.7949 49.3219 87.1433 47.2858 86.3041 45.3582L81.3209 47.4976C82.009 49.0842 82.5459 50.7637 82.9055 52.526Z" fill="#FFC87E"/>
<path id="Vector_57" d="M77.5836 53.5853L82.9056 52.5207C82.5459 50.7585 82.0142 49.079 81.321 47.4924L76.3378 49.6319C76.8799 50.8774 77.3021 52.2003 77.5836 53.5853Z" fill="#FFD397"/>
<path id="Vector_58" d="M72.2615 54.6499L77.5835 53.5854C77.302 52.2004 76.8798 50.8774 76.3377 49.632L71.3545 51.7714C71.7506 52.681 72.0582 53.6422 72.2615 54.6499Z" fill="#FFDEB1"/>
<path id="Vector_59" d="M66.9395 55.7144L72.2615 54.6499C72.0582 53.6421 71.7507 52.6809 71.3545 51.7714L66.3713 53.9108C66.6163 54.4793 66.8092 55.0839 66.9395 55.7144Z" fill="#FFE8CA"/>
<path id="Vector_60" d="M61.3829 56.0504C61.482 56.2829 61.5602 56.5258 61.6123 56.779L66.9343 55.7145C66.804 55.084 66.6111 54.4794 66.3661 53.9109L61.3829 56.0504Z" fill="#FFF3E3"/>
</g>
<g id="Group_7">
<path id="Vector_61" d="M106.242 36.8105L111.225 34.6711C109.583 30.9089 107.587 27.4102 105.283 24.1907L100.858 27.3069C102.943 30.2215 104.751 33.3946 106.242 36.8054V36.8105Z" fill="#FFB200"/>
<path id="Vector_62" d="M101.259 38.95L106.242 36.8105C104.757 33.3997 102.943 30.2267 100.858 27.312L96.4321 30.4282C98.3034 33.0432 99.9245 35.8855 101.259 38.9448V38.95Z" fill="#FFBA19"/>
<path id="Vector_63" d="M96.2705 41.0843L101.254 38.9448C99.9193 35.8855 98.293 33.0432 96.4269 30.4282L92.0015 33.5444C93.6538 35.8545 95.0925 38.3764 96.2705 41.0791V41.0843Z" fill="#FFC132"/>
<path id="Vector_64" d="M91.2874 43.2239L96.2706 41.0844C95.0925 38.3764 93.6539 35.8597 92.0015 33.5497L87.576 36.6711C89.0147 38.6814 90.2657 40.8725 91.2926 43.2239H91.2874Z" fill="#FFC94C"/>
<path id="Vector_65" d="M86.3042 45.3633L91.2874 43.2238C90.2605 40.8725 89.0095 38.6813 87.5708 36.671L83.1454 39.7872C84.3703 41.4978 85.4337 43.3582 86.3042 45.3582V45.3633Z" fill="#FFD065"/>
<path id="Vector_66" d="M81.321 47.4977L86.3042 45.3582C85.4337 43.3582 84.3704 41.4978 83.1454 39.7872L78.72 42.9034C79.726 44.3143 80.6017 45.8439 81.321 47.4925V47.4977Z" fill="#FFD87E"/>
<path id="Vector_67" d="M76.3378 49.6371L81.3209 47.4976C80.6016 45.8491 79.7259 44.3142 78.7199 42.9086L74.2944 46.0248C75.0867 47.1307 75.7748 48.34 76.343 49.6371H76.3378Z" fill="#FFDF97"/>
<path id="Vector_68" d="M71.3494 51.7715L76.3326 49.632C75.7697 48.3348 75.0764 47.1307 74.2841 46.0197L69.8586 49.141C70.4372 49.9472 70.9376 50.8257 71.3494 51.7715Z" fill="#FFE7B1"/>
<path id="Vector_69" d="M66.3662 53.9109L71.3493 51.7714C70.9376 50.8257 70.4372 49.9472 69.8586 49.141L65.4331 52.2572C65.7928 52.7637 66.1107 53.3114 66.3662 53.9057V53.9109Z" fill="#FFEECA"/>
<path id="Vector_70" d="M61.0077 55.3838C61.1536 55.5905 61.2787 55.8128 61.383 56.0505L66.3662 53.911C66.1056 53.3219 65.7928 52.7689 65.4331 52.2625L61.0077 55.3787V55.3838Z" fill="#FFF6E3"/>
</g>
<g id="Group_8">
<path id="Vector_71" d="M100.847 27.3172L105.273 24.201C102.88 20.8574 100.19 17.8445 97.2662 15.1727L93.5913 19.1365C96.2393 21.5602 98.6788 24.2888 100.847 27.3172Z" fill="#FFD000"/>
<path id="Vector_72" d="M96.4216 30.4385L100.847 27.3223C98.6787 24.2939 96.2392 21.5653 93.5912 19.1416L89.9164 23.1053C92.2933 25.2758 94.4774 27.7254 96.4269 30.4385H96.4216Z" fill="#FFD519"/>
<path id="Vector_73" d="M91.9962 33.5547L96.4216 30.4385C94.4774 27.7202 92.2881 25.2758 89.9112 23.1053L86.2363 27.0691C88.337 28.9915 90.2708 31.1568 91.9962 33.5599V33.5547Z" fill="#FFE7B1"/>
<path id="Vector_74" d="M87.5655 36.671L91.991 33.5548C90.2708 31.1517 88.337 28.9864 86.2311 27.064L82.5563 31.0277C84.3859 32.6969 86.0643 34.5832 87.5655 36.671Z" fill="#FFDE4C"/>
<path id="Vector_75" d="M83.1401 39.7923L87.5656 36.6761C86.0696 34.5883 84.3859 32.7021 82.5563 31.0328L78.8815 34.9966C80.4348 36.4177 81.8683 38.0198 83.1401 39.7975V39.7923Z" fill="#FFE365"/>
<path id="Vector_76" d="M78.7147 42.9086L83.1402 39.7924C81.8683 38.0146 80.4349 36.4126 78.8815 34.9915L75.2067 38.9552C76.489 40.1283 77.667 41.4461 78.7147 42.9086Z" fill="#FFE77E"/>
<path id="Vector_77" d="M74.284 46.0299L78.7095 42.9137C77.6618 41.4512 76.4837 40.1283 75.2015 38.9603L71.5266 42.9241C72.5326 43.8439 73.4605 44.8827 74.284 46.0351V46.0299Z" fill="#FFEC97"/>
<path id="Vector_78" d="M69.8585 49.1461L74.284 46.0299C73.4604 44.8774 72.5326 43.8387 71.5265 42.9188L67.8517 46.8826C68.5867 47.5544 69.2591 48.3089 69.8585 49.1461Z" fill="#FFF1B1"/>
<path id="Vector_79" d="M65.4331 52.2623L69.8586 49.1461C69.2591 48.3089 68.5815 47.5544 67.8517 46.8826L64.1769 50.8463C64.6356 51.2649 65.0578 51.7403 65.4383 52.2675L65.4331 52.2623Z" fill="#FFF5CA"/>
<path id="Vector_80" d="M60.4968 54.81C60.6845 54.9806 60.8513 55.1718 61.0077 55.3837L65.4331 52.2675C65.0578 51.7404 64.6356 51.2701 64.1717 50.8463L60.4968 54.81Z" fill="#FFFAE3"/>
</g>
<g id="Group_9">
<path id="Vector_81" d="M93.5807 19.1469L97.2556 15.1831C94.2115 12.408 90.9484 10.0153 87.529 8.005L84.7611 12.6406C87.8626 14.4648 90.8181 16.6301 93.5755 19.1469H93.5807Z" fill="#FFDF00"/>
<path id="Vector_82" d="M89.906 23.1106L93.5808 19.1468C90.8234 16.6301 87.8679 14.4648 84.7664 12.6405L81.9985 17.2761C84.7768 18.9091 87.43 20.8522 89.9008 23.1106H89.906Z" fill="#FFE219"/>
<path id="Vector_83" d="M86.2311 27.0692L89.9059 23.1055C87.43 20.8523 84.782 18.904 82.0037 17.271L79.2358 21.9066C81.6962 23.3535 84.0418 25.0744 86.2311 27.0692Z" fill="#FFE532"/>
<path id="Vector_84" d="M82.5563 31.0329L86.2311 27.0692C84.0418 25.0744 81.6962 23.3535 79.2359 21.9065L76.468 26.542C78.6052 27.7978 80.6485 29.2965 82.5511 31.0329H82.5563Z" fill="#FFE6CA"/>
<path id="Vector_85" d="M78.8761 34.9967L82.551 31.033C80.6484 29.2966 78.6051 27.8031 76.4679 26.5421L73.7001 31.1777C75.5193 32.2474 77.255 33.5187 78.8709 34.9967H78.8761Z" fill="#FFEB65"/>
<path id="Vector_86" d="M75.2014 38.9604L78.8762 34.9966C77.2551 33.5186 75.5245 32.2474 73.7054 31.1776L70.9375 35.8132C72.4335 36.6917 73.867 37.7408 75.2014 38.9604Z" fill="#FFEF7E"/>
<path id="Vector_87" d="M71.5266 42.9189L75.2014 38.9552C73.867 37.7408 72.4388 36.6917 70.9375 35.808L68.1697 40.4435C69.3477 41.136 70.4736 41.9577 71.5213 42.9138L71.5266 42.9189Z" fill="#FFF297"/>
<path id="Vector_88" d="M67.8464 46.8827L71.5213 42.919C70.4735 41.9629 69.3476 41.1412 68.1696 40.4487L65.4017 45.0843C66.2618 45.5907 67.0802 46.1902 67.8412 46.8827H67.8464Z" fill="#FFF5B1"/>
<path id="Vector_89" d="M64.1717 50.8464L67.8465 46.8826C67.0855 46.185 66.2671 45.5855 65.407 45.0842L62.6392 49.7198C63.1761 50.035 63.6921 50.4123 64.1664 50.8464H64.1717Z" fill="#FFF8CA"/>
<path id="Vector_90" d="M59.8765 54.3554C60.0954 54.4846 60.3039 54.6345 60.4968 54.8102L64.1716 50.8464C63.692 50.4123 63.1812 50.0351 62.6443 49.7198L59.8765 54.3554Z" fill="#FFFBE3"/>
</g>
<g id="Group_10">
<path id="Vector_91" d="M84.7613 12.6508L87.5239 8.01529C83.9638 5.92748 80.2733 4.25827 76.5046 2.99731L74.774 8.10314C78.1883 9.24524 81.5347 10.7594 84.7613 12.6508Z" fill="#FFED00"/>
<path id="Vector_92" d="M81.9986 17.2813L84.7613 12.6457C81.5347 10.7543 78.1882 9.24528 74.774 8.09802L73.0435 13.2039C76.1032 14.2271 79.1056 15.5862 81.9986 17.2813Z" fill="#FFEF19"/>
<path id="Vector_93" d="M79.2308 21.9168L81.9934 17.2813C79.1005 15.5862 76.098 14.2323 73.0383 13.2039L71.3025 18.3097C74.013 19.2192 76.6662 20.4182 79.2256 21.9168H79.2308Z" fill="#FFF132"/>
<path id="Vector_94" d="M76.4681 26.5524L79.2307 21.9168C76.6714 20.4182 74.0182 19.2192 71.3077 18.3097L69.5719 23.4155C71.928 24.2062 74.2371 25.2449 76.4629 26.5524H76.4681Z" fill="#FFF24C"/>
<path id="Vector_95" d="M73.7002 31.1827L76.4628 26.5472C74.2371 25.2397 71.9279 24.201 69.5718 23.4103L67.8361 28.5161C69.8377 29.1879 71.8028 30.0716 73.695 31.1827H73.7002Z" fill="#FFF2E3"/>
<path id="Vector_96" d="M70.9375 35.8183L73.7002 31.1827C71.808 30.0716 69.8429 29.1879 67.8413 28.5161L66.1107 33.6219C67.7631 34.1749 69.379 34.9036 70.9375 35.8183Z" fill="#FFF67E"/>
<path id="Vector_97" d="M68.1697 40.4538L70.9323 35.8183C69.3738 34.9036 67.7527 34.1749 66.1055 33.6219L64.3698 38.7278C65.6677 39.1619 66.9395 39.7355 68.1645 40.4538H68.1697Z" fill="#FFF897"/>
<path id="Vector_98" d="M65.407 45.0843L68.1697 40.4487C66.9447 39.7304 65.6729 39.1568 64.3749 38.7227L62.6392 43.8285C63.5826 44.1437 64.5105 44.5623 65.4018 45.0843H65.407Z" fill="#FFF9B1"/>
<path id="Vector_99" d="M62.6444 49.7198L65.407 45.0843C64.5157 44.5623 63.5879 44.1437 62.6444 43.8285L60.9138 48.9343C61.508 49.1307 62.0866 49.3943 62.6444 49.725V49.7198Z" fill="#FFFBCA"/>
<path id="Vector_100" d="M59.1781 54.0349C59.4178 54.1176 59.6524 54.2209 59.8765 54.3553L62.6392 49.7198C62.0815 49.389 61.4976 49.1306 60.9086 48.9291L59.1729 54.0349H59.1781Z" fill="#FFFDE3"/>
</g>
<g id="Group_11">
<path id="Vector_101" d="M74.774 8.11346L76.5045 3.0128C72.5847 1.70533 68.6232 0.837135 64.6773 0.377197L64.0518 5.72591C67.6328 6.13934 71.2242 6.93002 74.774 8.11346Z" fill="#DCED00"/>
<path id="Vector_102" d="M73.0382 13.2142L74.7687 8.1135C71.219 6.93006 67.6275 6.13938 64.0465 5.72595L63.421 11.0747C66.6319 11.4468 69.8481 12.1547 73.033 13.2142H73.0382Z" fill="#DFEF19"/>
<path id="Vector_103" d="M71.3077 18.32L73.0382 13.2193C69.8534 12.1547 66.632 11.4519 63.4263 11.0798L62.8008 16.4286C65.6416 16.7593 68.4877 17.3846 71.3077 18.3251V18.32Z" fill="#E3F132"/>
<path id="Vector_104" d="M69.5719 23.4206L71.3024 18.3199C68.4824 17.3794 65.6364 16.7541 62.7956 16.4233L62.17 21.7721C64.6408 22.0563 67.1168 22.6041 69.5667 23.4206H69.5719Z" fill="#E6F24C"/>
<path id="Vector_105" d="M67.8412 28.5213L69.5718 23.4206C67.1219 22.6041 64.6407 22.0563 62.1752 21.7721L61.5497 27.1208C63.6503 27.3637 65.7562 27.8288 67.8412 28.5213Z" fill="#EAF465"/>
<path id="Vector_106" d="M66.1055 33.6271L67.8361 28.5265C65.7511 27.8288 63.6452 27.3689 61.5446 27.126L60.9191 32.4747C62.6496 32.6762 64.3854 33.0535 66.1003 33.6271H66.1055Z" fill="#EDF67E"/>
<path id="Vector_107" d="M64.3749 38.7277L66.1055 33.627C64.3906 33.0534 62.6548 32.671 60.9242 32.4746L60.2987 37.8233C61.6592 37.9835 63.0249 38.2781 64.3749 38.7329V38.7277Z" fill="#F1F897"/>
<path id="Vector_108" d="M62.6444 43.8284L64.3749 38.7278C63.0249 38.2782 61.6592 37.9784 60.2987 37.8182L59.6732 43.167C60.6636 43.2806 61.6592 43.4977 62.6392 43.8284H62.6444Z" fill="#F4F9B1"/>
<path id="Vector_109" d="M60.9086 48.9343L62.6392 43.8336C61.654 43.5029 60.6636 43.2858 59.6732 43.1721L59.0477 48.5208C59.668 48.5932 60.2935 48.7276 60.9086 48.9343Z" fill="#F8FBCA"/>
<path id="Vector_110" d="M58.4222 53.8696C58.6724 53.9006 58.9226 53.9523 59.1728 54.035L60.9034 48.9343C60.2883 48.7276 59.6628 48.5932 59.0425 48.5209L58.417 53.8696H58.4222Z" fill="#FBFDE3"/>
</g>
<g id="Group_12">
<path id="Vector_111" d="M64.0466 5.73626L64.6721 0.38754C60.5646 -0.0827335 56.5093 -0.118908 52.5477 0.248008L53.0586 5.60706C56.6448 5.27632 60.3249 5.30733 64.0466 5.73109V5.73626Z" fill="#BADF00"/>
<path id="Vector_112" d="M63.4263 11.085L64.0518 5.7363C60.33 5.30737 56.65 5.27636 53.0637 5.61227L53.5745 10.9713C56.7907 10.6716 60.0902 10.7026 63.4263 11.085Z" fill="#C1E219"/>
<path id="Vector_113" d="M62.8008 16.4337L63.4263 11.0849C60.0903 10.7025 56.7907 10.6715 53.5746 10.9713L54.0854 16.3303C56.9315 16.0667 59.8505 16.0926 62.8008 16.4285V16.4337Z" fill="#C8E532"/>
<path id="Vector_114" d="M62.1753 21.7773L62.8008 16.4285C59.8453 16.0875 56.9315 16.0668 54.0854 16.3304L54.5963 21.6894C57.0722 21.462 59.6107 21.4827 62.1805 21.7773H62.1753Z" fill="#CEE84C"/>
<path id="Vector_115" d="M61.5498 27.1259L62.1753 21.7772C59.6055 21.4826 57.067 21.4619 54.5911 21.6893L55.1019 27.0484C57.2078 26.852 59.3658 26.8727 61.5498 27.1207V27.1259Z" fill="#D5EB65"/>
<path id="Vector_116" d="M60.9243 32.4747L61.5498 27.1259C59.3658 26.8727 57.2078 26.8572 55.1019 27.0536L55.6128 32.4126C57.3485 32.2524 59.126 32.2679 60.9243 32.4747Z" fill="#DCEF7E"/>
<path id="Vector_117" d="M60.2987 37.8234L60.9243 32.4747C59.1259 32.268 57.3484 32.2525 55.6127 32.4127L56.1235 37.7717C57.4892 37.6477 58.8861 37.658 60.2987 37.8183V37.8234Z" fill="#E3F297"/>
<path id="Vector_118" d="M59.6733 43.1721L60.2988 37.8233C58.8862 37.6631 57.484 37.6476 56.1235 37.7768L56.6344 43.1359C57.63 43.0429 58.6464 43.0532 59.6733 43.1721Z" fill="#E9F5B1"/>
<path id="Vector_119" d="M59.0478 48.5208L59.6733 43.1721C58.6412 43.0532 57.6248 43.0429 56.6344 43.1359L57.1452 48.495C57.7655 48.4381 58.4067 48.4433 59.053 48.5157L59.0478 48.5208Z" fill="#F0F8CA"/>
<path id="Vector_120" d="M57.6508 53.8592C57.901 53.8334 58.1617 53.8385 58.4223 53.8695L59.0478 48.5208C58.4014 48.4485 57.7655 48.4433 57.14 48.5001L57.6508 53.8592Z" fill="#F7FBE3"/>
</g>
<g id="Group_13">
<path id="Vector_121" d="M53.0637 5.61748L52.5529 0.258423C48.435 0.646011 44.4578 1.44703 40.6631 2.62013L42.2842 7.75696C45.7245 6.69239 49.3263 5.96372 53.0585 5.61748H53.0637Z" fill="#70C700"/>
<path id="Vector_122" d="M53.5693 10.9817L53.0585 5.62268C49.3263 5.97409 45.7245 6.69759 42.2842 7.76217L43.9053 12.899C46.9911 11.943 50.2229 11.2918 53.5693 10.9766V10.9817Z" fill="#7ECD19"/>
<path id="Vector_123" d="M54.0802 16.3407L53.5693 10.9817C50.2229 11.2969 46.9911 11.9481 43.9053 12.9041L45.5264 18.041C48.2577 17.1986 51.1142 16.6198 54.0749 16.3407H54.0802Z" fill="#8CD232"/>
<path id="Vector_124" d="M54.591 21.6998L54.0802 16.3407C51.1195 16.6198 48.263 17.1934 45.5316 18.0409L47.1527 23.1778C49.5244 22.4439 52.0108 21.9426 54.5858 21.6998H54.591Z" fill="#9AD84C"/>
<path id="Vector_125" d="M55.1019 27.0589L54.5911 21.6998C52.0161 21.9427 49.5297 22.444 47.158 23.1778L48.7791 28.3147C50.7963 27.6894 52.9126 27.2604 55.1019 27.0589Z" fill="#A8DD65"/>
<path id="Vector_126" d="M55.6127 32.4179L55.1019 27.0588C52.9126 27.2656 50.7963 27.6893 48.7791 28.3146L50.4002 33.4515C52.063 32.9347 53.8039 32.5833 55.6075 32.4179H55.6127Z" fill="#B7E37E"/>
<path id="Vector_127" d="M56.1234 37.7821L55.6126 32.4231C53.8091 32.5936 52.0681 32.945 50.4053 33.4567L52.0264 38.5935C53.3347 38.1904 54.7056 37.9113 56.1234 37.777V37.7821Z" fill="#C5E897"/>
<path id="Vector_128" d="M56.6344 43.1412L56.1236 37.7821C54.7057 37.9165 53.3348 38.1904 52.0265 38.5986L53.6476 43.7355C54.6015 43.4409 55.5971 43.2393 56.6292 43.1412H56.6344Z" fill="#D3EEB1"/>
<path id="Vector_129" d="M57.1451 48.5003L56.6343 43.1412C55.6022 43.2394 54.6066 43.441 53.6527 43.7355L55.2738 48.8724C55.868 48.6863 56.4935 48.5623 57.1451 48.5003Z" fill="#E1F3CA"/>
<path id="Vector_130" d="M56.9001 54.0092C57.1399 53.9368 57.3953 53.8851 57.6559 53.8593L57.1451 48.5002C56.4988 48.5623 55.8732 48.6863 55.2738 48.8723L56.8949 54.0092H56.9001Z" fill="#EFF9E3"/>
</g>
<g id="Group_14">
<path id="Vector_131" d="M42.2894 7.77246L40.6683 2.63562C36.7224 3.8604 33.0006 5.4676 29.5343 7.3952L32.1979 12.0876C35.3411 10.3357 38.7136 8.88354 42.2894 7.77246Z" fill="#3BBE00"/>
<path id="Vector_132" d="M43.9105 12.9093L42.2894 7.77246C38.7136 8.88355 35.341 10.3357 32.1979 12.0876L34.8615 16.78C37.6763 15.209 40.7048 13.9067 43.9105 12.9093Z" fill="#4EC419"/>
<path id="Vector_133" d="M45.5368 18.0461L43.9157 12.9093C40.71 13.9067 37.6867 15.209 34.8667 16.78L37.5303 21.4724C40.0219 20.0823 42.6959 18.9298 45.5368 18.0461Z" fill="#62CB32"/>
<path id="Vector_134" d="M47.158 23.183L45.5369 18.0461C42.7012 18.9298 40.022 20.0823 37.5304 21.4724L40.194 26.1648C42.3624 24.9555 44.6872 23.953 47.158 23.1881V23.183Z" fill="#75D14C"/>
<path id="Vector_135" d="M48.7843 28.3249L47.1632 23.1881C44.6976 23.953 42.3676 24.9607 40.1992 26.1648L42.8628 30.8572C44.7081 29.8288 46.6836 28.9761 48.7843 28.3249Z" fill="#88D865"/>
<path id="Vector_136" d="M50.4053 33.4618L48.7842 28.325C46.6836 28.9761 44.708 29.8288 42.8628 30.8572L45.5264 35.5496C47.0433 34.7021 48.6748 33.9992 50.4053 33.4618Z" fill="#9CDE7E"/>
<path id="Vector_137" d="M52.0264 38.5986L50.4053 33.4618C48.6747 33.9992 47.0484 34.7021 45.5264 35.5496L48.19 40.242C49.3837 39.5754 50.6659 39.0224 52.0264 38.6038V38.5986Z" fill="#AFE597"/>
<path id="Vector_138" d="M53.6527 43.7355L52.0316 38.5986C50.6712 39.0224 49.3889 39.5754 48.1952 40.2368L50.8588 44.9292C51.7293 44.4435 52.6623 44.0404 53.6527 43.7355Z" fill="#C2EBB1"/>
<path id="Vector_139" d="M55.2739 48.8723L53.6528 43.7355C52.6624 44.0404 51.7294 44.4435 50.8589 44.9292L53.5225 49.6216C54.0698 49.3167 54.6536 49.0635 55.2739 48.8723Z" fill="#D6F2CA"/>
<path id="Vector_140" d="M56.1913 54.3141C56.4102 54.19 56.65 54.0867 56.9002 54.0092L55.2791 48.8723C54.6588 49.0635 54.075 49.3167 53.5277 49.6216L56.1913 54.3141Z" fill="#E9F8E3"/>
</g>
<g id="Group_15">
<path id="Vector_141" d="M32.2031 12.0979L29.5395 7.40552C25.9377 9.41581 22.6329 11.7568 19.6461 14.3563L23.2376 18.3975C25.9429 16.0358 28.9349 13.9222 32.2031 12.0979Z" fill="#00B600"/>
<path id="Vector_142" d="M34.872 16.7852L32.2084 12.0928C28.9401 13.917 25.9481 16.0358 23.2428 18.3924L26.8342 22.4336C29.2633 20.32 31.9425 18.4182 34.872 16.7852Z" fill="#19BD19"/>
<path id="Vector_143" d="M37.5356 21.4776L34.872 16.7852C31.9425 18.4182 29.2581 20.32 26.8342 22.4336L30.4257 26.4749C32.5732 24.6041 34.945 22.9246 37.5356 21.4776Z" fill="#32C432"/>
<path id="Vector_144" d="M40.1992 26.1699L37.5356 21.4775C34.9449 22.9245 32.568 24.6041 30.4257 26.4748L34.0171 30.5161C35.8832 28.8882 37.9474 27.4257 40.2044 26.1699H40.1992Z" fill="#4CCC4C"/>
<path id="Vector_145" d="M42.8627 30.8623L40.1991 26.1699C37.9473 27.4257 35.8779 28.8882 34.0118 30.5161L37.6033 34.5573C39.1931 33.1724 40.9445 31.9321 42.8627 30.8623Z" fill="#65D365"/>
<path id="Vector_146" d="M45.5316 35.5496L42.868 30.8572C40.9498 31.9269 39.1983 33.1724 37.6085 34.5522L41.2 38.5934C42.5083 37.4513 43.9574 36.4281 45.5316 35.5496Z" fill="#7EDA7E"/>
<path id="Vector_147" d="M48.1952 40.242L45.5316 35.5496C43.9522 36.4333 42.5083 37.4565 41.2 38.5934L44.7914 42.6347C45.8183 41.7355 46.9598 40.9345 48.2004 40.242H48.1952Z" fill="#97E197"/>
<path id="Vector_148" d="M50.8589 44.9343L48.1953 40.2419C46.9547 40.9344 45.8183 41.7406 44.7863 42.6347L48.3777 46.6759C49.1283 46.0248 49.9571 45.4356 50.8589 44.9292V44.9343Z" fill="#B1E9B1"/>
<path id="Vector_149" d="M53.5277 49.6216L50.8641 44.9292C49.9623 45.4356 49.1335 46.0196 48.3829 46.6759L51.9744 50.7172C52.4435 50.3089 52.9648 49.942 53.5277 49.6216Z" fill="#CAF0CA"/>
<path id="Vector_150" d="M55.5606 54.7584C55.7482 54.593 55.962 54.4432 56.1913 54.314L53.5277 49.6216C52.9595 49.9368 52.4435 50.3037 51.9744 50.7172L55.5658 54.7584H55.5606Z" fill="#E3F7E3"/>
</g>
<g id="Group_16">
<path id="Vector_151" d="M23.2479 18.4078L19.6565 14.3666C16.555 17.0797 13.8132 20.046 11.4415 23.2036L15.7992 26.4128C17.952 23.5447 20.4332 20.8574 23.2479 18.4027V18.4078Z" fill="#00BD4F"/>
<path id="Vector_152" d="M26.8394 22.444L23.2479 18.4027C20.4384 20.8574 17.952 23.5499 15.7992 26.4129L20.1569 29.6221C22.0855 27.0537 24.3113 24.6403 26.8342 22.4388L26.8394 22.444Z" fill="#19C460"/>
<path id="Vector_153" d="M30.4256 26.4852L26.8341 22.444C24.3113 24.6455 22.0855 27.0589 20.1569 29.6273L24.5145 32.8365C26.2243 30.5627 28.1946 28.4283 30.4256 26.4801V26.4852Z" fill="#32CA72"/>
<path id="Vector_154" d="M34.0171 30.5212L30.4257 26.48C28.1947 28.4283 26.2244 30.5626 24.5146 32.8364L28.8723 36.0457C30.3579 34.0664 32.0728 32.2111 34.0119 30.5161L34.0171 30.5212Z" fill="#4CD183"/>
<path id="Vector_155" d="M37.6085 34.5625L34.017 30.5212C32.0779 32.2163 30.363 34.0715 28.8774 36.0508L33.2351 39.2601C34.4966 37.5805 35.9561 35.9992 37.6032 34.5573L37.6085 34.5625Z" fill="#65D794"/>
<path id="Vector_156" d="M41.1999 38.5986L37.6085 34.5574C35.9613 35.9992 34.5018 37.5754 33.2404 39.2601L37.598 42.4693C38.6406 41.0844 39.8394 39.7821 41.1999 38.5986Z" fill="#7EDEA6"/>
<path id="Vector_157" d="M44.7913 42.6399L41.1999 38.5986C39.8394 39.7872 38.6405 41.0844 37.598 42.4693L41.9557 45.6786C42.7741 44.5882 43.7176 43.5649 44.7861 42.6347L44.7913 42.6399Z" fill="#97E4B7"/>
<path id="Vector_158" d="M48.3828 46.6811L44.7914 42.6399C43.7228 43.5753 42.7793 44.5933 41.9609 45.6838L46.3186 48.893C46.9129 48.1023 47.6009 47.353 48.3776 46.676L48.3828 46.6811Z" fill="#B1EBC8"/>
<path id="Vector_159" d="M51.9691 50.7172L48.3777 46.6759C47.601 47.3581 46.913 48.1022 46.3187 48.8929L50.6764 52.1021C51.0517 51.606 51.4791 51.1409 51.9691 50.712V50.7172Z" fill="#CAF1DA"/>
<path id="Vector_160" d="M55.0393 55.3217C55.1905 55.1202 55.3625 54.9341 55.5605 54.7584L51.9691 50.7172C51.4791 51.1409 51.0517 51.6112 50.6764 52.1073L55.0341 55.3165L55.0393 55.3217Z" fill="#E3F8EB"/>
</g>
<g id="Group_17">
<path id="Vector_161" d="M15.8097 26.4232L11.452 23.214C8.98644 26.5059 6.92749 29.9735 5.2699 33.5548L10.2062 35.7977C11.7126 32.5523 13.5735 29.4102 15.8097 26.4284V26.4232Z" fill="#00C6A0"/>
<path id="Vector_162" d="M20.1674 29.6324L15.8097 26.4232C13.5735 29.4051 11.7074 32.5471 10.2062 35.7925L15.1425 38.0354C16.4925 35.1259 18.1657 32.3042 20.1674 29.6324Z" fill="#19CCA9"/>
<path id="Vector_163" d="M24.525 32.8468L20.1674 29.6376C18.1657 32.3145 16.4925 35.131 15.1425 38.0405L20.0787 40.2833C21.2724 37.7097 22.7528 35.2137 24.525 32.8468Z" fill="#32D1B3"/>
<path id="Vector_164" d="M28.8827 36.056L24.525 32.8468C22.7528 35.2137 21.2724 37.7046 20.0787 40.2833L25.015 42.5262C26.0523 40.2833 27.3398 38.118 28.8827 36.0612V36.056Z" fill="#4CD7BC"/>
<path id="Vector_165" d="M33.2457 39.2653L28.888 36.056C27.3451 38.1128 26.0576 40.2833 25.0203 42.521L29.9565 44.7638C30.8375 42.8569 31.9321 41.0172 33.2457 39.2653Z" fill="#65DDC5"/>
<path id="Vector_166" d="M37.6033 42.4745L33.2457 39.2653C31.9321 41.0172 30.8375 42.8569 29.9565 44.7638L34.8928 47.0067C35.6174 45.4357 36.5191 43.9163 37.6033 42.4745Z" fill="#7EE2CF"/>
<path id="Vector_167" d="M41.961 45.689L37.6033 42.4797C36.5243 43.9216 35.6226 45.4409 34.8928 47.0119L39.8291 49.2548C40.4025 48.0197 41.1114 46.8259 41.961 45.6941V45.689Z" fill="#97E8D8"/>
<path id="Vector_168" d="M46.3239 48.8982L41.9662 45.689C41.1165 46.8207 40.4076 48.0145 39.8342 49.2496L44.7705 51.4924C45.1875 50.5932 45.7036 49.725 46.3239 48.8982Z" fill="#B1EEE1"/>
<path id="Vector_169" d="M50.6817 52.1074L46.324 48.8982C45.7037 49.725 45.1876 50.5932 44.7706 51.4924L49.7069 53.7353C49.9675 53.172 50.2907 52.6294 50.6764 52.1074H50.6817Z" fill="#CAF3EB"/>
<path id="Vector_170" d="M54.6483 55.9781C54.7526 55.7507 54.8829 55.5285 55.0393 55.3218L50.6816 52.1125C50.2958 52.6293 49.9727 53.1771 49.712 53.7404L54.6483 55.9833V55.9781Z" fill="#E3F9F4"/>
</g>
<g id="Group_18">
<path id="Vector_171" d="M10.2114 35.7977L5.27511 33.5548C3.55497 37.2808 2.26747 41.0947 1.39697 44.9447L6.69813 46.1178C7.49044 42.6295 8.65284 39.1723 10.2166 35.7977H10.2114Z" fill="#00AFCF"/>
<path id="Vector_172" d="M15.1476 38.0405L10.2113 35.7976C8.65279 39.1774 7.48518 42.6347 6.69287 46.1178L11.994 47.2909C12.7029 44.1643 13.7454 41.0636 15.1476 38.0353V38.0405Z" fill="#19B7D4"/>
<path id="Vector_173" d="M20.0891 40.2834L15.1529 38.0405C13.7559 41.0689 12.7082 44.1696 11.9993 47.2961L17.3004 48.4692C17.9259 45.7044 18.8538 42.9603 20.0891 40.2782V40.2834Z" fill="#32BFD9"/>
<path id="Vector_174" d="M25.0254 42.5262L20.0891 40.2833C18.8485 42.9654 17.9259 45.7044 17.3004 48.4744L22.6016 49.6475C23.1489 47.2444 23.9516 44.8569 25.0306 42.5262H25.0254Z" fill="#4CC7DD"/>
<path id="Vector_175" d="M29.9618 44.7691L25.0255 42.5262C23.9465 44.8569 23.1438 47.2445 22.5964 49.6475L27.8976 50.8206C28.3615 48.7742 29.0444 46.7484 29.9618 44.7639V44.7691Z" fill="#65CFE2"/>
<path id="Vector_176" d="M34.898 47.0119L29.9618 44.769C29.0443 46.7535 28.3615 48.7793 27.8976 50.8258L33.1987 51.9989C33.5793 50.3141 34.1422 48.6398 34.898 47.0067V47.0119Z" fill="#7ED6E7"/>
<path id="Vector_177" d="M39.8343 49.2496L34.898 47.0067C34.1422 48.6398 33.5792 50.309 33.1987 51.9989L38.4999 53.172C38.8022 51.849 39.2453 50.5312 39.8343 49.2496Z" fill="#97DEEC"/>
<path id="Vector_178" d="M44.7758 51.4924L39.8395 49.2495C39.2453 50.5311 38.8022 51.8489 38.5051 53.1719L43.8063 54.345C44.0252 53.3786 44.3484 52.4226 44.781 51.4872L44.7758 51.4924Z" fill="#B1E6F0"/>
<path id="Vector_179" d="M49.7121 53.7353L44.7758 51.4924C44.3431 52.4278 44.02 53.3839 43.801 54.3502L49.1022 55.5234C49.2377 54.9187 49.441 54.3192 49.7121 53.7353Z" fill="#CAEEF5"/>
<path id="Vector_180" d="M54.4033 56.7016C54.4607 56.4587 54.5389 56.2158 54.6483 55.9781L49.712 53.7352C49.441 54.3192 49.2377 54.9187 49.1022 55.5233L54.4033 56.6964V56.7016Z" fill="#E3F6FA"/>
</g>
<g id="Group_19">
<path id="Vector_181" d="M6.70855 46.123L1.40739 44.95C0.505617 48.9499 0.0469129 52.9498 0 56.8877L5.43147 56.9445C5.47317 53.3735 5.89018 49.7509 6.70855 46.123Z" fill="#009BCC"/>
<path id="Vector_182" d="M12.0045 47.3013L6.70334 46.1282C5.88497 49.756 5.46797 53.3787 5.42627 56.9496L10.8577 57.0065C10.8942 53.8024 11.2695 50.557 11.9993 47.3013H12.0045Z" fill="#19A5D1"/>
<path id="Vector_183" d="M17.3056 48.4744L12.0045 47.3013C11.2695 50.5518 10.8994 53.8024 10.8629 57.0065L16.2944 57.0633C16.3257 54.2313 16.6593 51.3529 17.3056 48.4795V48.4744Z" fill="#32AFD6"/>
<path id="Vector_184" d="M22.6068 49.6475L17.3057 48.4744C16.6541 51.3529 16.3257 54.2262 16.2944 57.0582L21.7259 57.115C21.7572 54.6499 22.0387 52.1487 22.6068 49.6475Z" fill="#4CB9DB"/>
<path id="Vector_185" d="M27.9028 50.8258L22.6016 49.6527C22.0387 52.1539 21.752 54.6552 21.7207 57.1202L27.1522 57.1771C27.1782 55.0789 27.418 52.955 27.9028 50.8258Z" fill="#65C3E0"/>
<path id="Vector_186" d="M33.2039 51.9989L27.9027 50.8258C27.4232 52.955 27.1782 55.0789 27.1521 57.1771L32.5836 57.2339C32.6044 55.5079 32.8025 53.756 33.1987 52.0041L33.2039 51.9989Z" fill="#7ECCE5"/>
<path id="Vector_187" d="M38.5051 53.1771L33.2039 52.004C32.8078 53.7559 32.6097 55.5078 32.5889 57.2339L38.0203 57.2907C38.036 55.9316 38.1924 54.5569 38.5051 53.1771Z" fill="#97D6EA"/>
<path id="Vector_188" d="M43.8011 54.3502L38.4999 53.1771C38.1872 54.5569 38.0308 55.9316 38.0151 57.2907L43.4466 57.3476C43.457 56.3605 43.5717 55.358 43.8011 54.3502Z" fill="#B1E0EF"/>
<path id="Vector_189" d="M49.1021 55.5286L43.801 54.3555C43.5768 55.358 43.4622 56.3606 43.4465 57.3528L48.878 57.4097C48.8832 56.7895 48.9562 56.1642 49.0969 55.5337L49.1021 55.5286Z" fill="#CAEAF4"/>
<path id="Vector_190" d="M54.3148 57.4613C54.3148 57.2133 54.3461 56.9549 54.4034 56.7017L49.1022 55.5286C48.9615 56.159 48.8885 56.7844 48.8833 57.4045L54.3148 57.4613Z" fill="#E3F4F9"/>
</g>
<g id="Group_20">
<path id="Vector_191" d="M5.44185 56.9444L0.0103791 56.8876C-0.0313213 60.9857 0.354407 64.9908 1.13629 68.8563L6.4583 67.7917C5.74939 64.2879 5.39494 60.6601 5.43664 56.9444H5.44185Z" fill="#0087C3"/>
<path id="Vector_192" d="M10.8734 57.0013L5.4419 56.9445C5.4002 60.6601 5.75465 64.288 6.46356 67.7918L11.7856 66.7272C11.1496 63.5851 10.8317 60.3294 10.8682 57.0013H10.8734Z" fill="#1993C9"/>
<path id="Vector_193" d="M16.2995 57.0581L10.8681 57.0012C10.8316 60.3345 11.1495 63.585 11.7855 66.7271L17.1075 65.6625C16.5445 62.8822 16.263 60.0037 16.2943 57.0581H16.2995Z" fill="#329FCF"/>
<path id="Vector_194" d="M21.7311 57.1149L16.2996 57.0581C16.2683 60.0038 16.5498 62.8874 17.1127 65.6626L22.4348 64.598C21.9448 62.1794 21.6998 59.6782 21.7311 57.1149Z" fill="#4CABD5"/>
<path id="Vector_195" d="M27.1625 57.177L21.731 57.1201C21.7049 59.6834 21.9499 62.1898 22.4347 64.6032L27.7567 63.5386C27.3397 61.4818 27.1312 59.3526 27.1573 57.1718L27.1625 57.177Z" fill="#65B7DB"/>
<path id="Vector_196" d="M32.5941 57.2338L27.1626 57.177C27.1417 59.3578 27.345 61.487 27.762 63.5438L33.084 62.4792C32.74 60.7842 32.5732 59.0323 32.5888 57.2338H32.5941Z" fill="#7EC2E0"/>
<path id="Vector_197" d="M38.0203 57.2906L32.5889 57.2338C32.568 59.0322 32.74 60.7841 33.084 62.4791L38.4061 61.4145C38.135 60.0812 38.0047 58.7014 38.0151 57.2906H38.0203Z" fill="#97CEE6"/>
<path id="Vector_198" d="M43.4517 57.3475L38.0203 57.2906C38.0046 58.7015 38.1401 60.0813 38.4112 61.4146L43.7332 60.35C43.5351 59.3785 43.4413 58.3759 43.4517 57.3475Z" fill="#B1DAEC"/>
<path id="Vector_199" d="M48.8833 57.4044L43.4518 57.3475C43.4414 58.3759 43.5404 59.3785 43.7333 60.35L49.0553 59.2855C48.9302 58.6757 48.8728 58.0504 48.8781 57.4044H48.8833Z" fill="#CAE6F2"/>
<path id="Vector_200" d="M54.3825 58.2208C54.3303 57.9728 54.3095 57.7195 54.3095 57.4611L48.878 57.4043C48.8728 58.0503 48.9301 58.6808 49.0552 59.2854L54.3772 58.2208H54.3825Z" fill="#E3F2F8"/>
</g>
<g id="Group_21">
<path id="Vector_201" d="M6.47399 67.7917L1.15198 68.8563C1.97035 72.8769 3.19008 76.7114 4.76427 80.3289L9.74747 78.1895C8.31923 74.9079 7.21417 71.4299 6.47399 67.7917Z" fill="#0074BF"/>
<path id="Vector_202" d="M11.796 66.7272L6.474 67.7918C7.21418 71.4351 8.31924 74.9131 9.74748 78.1895L14.7307 76.05C13.4484 73.1095 12.458 69.9881 11.796 66.722V66.7272Z" fill="#1982C5"/>
<path id="Vector_203" d="M17.1233 65.6626L11.8013 66.7272C12.4633 69.9932 13.4589 73.1095 14.7359 76.0551L19.7191 73.9156C18.588 71.311 17.7071 68.5566 17.1233 65.6626Z" fill="#3290CC"/>
<path id="Vector_204" d="M22.4452 64.6033L17.1232 65.6678C17.7122 68.5567 18.5879 71.3163 19.719 73.9209L24.7022 71.7814C23.717 69.5179 22.9508 67.12 22.44 64.6033H22.4452Z" fill="#4C9DD2"/>
<path id="Vector_205" d="M27.7672 63.5387L22.4452 64.6033C22.956 67.1148 23.7223 69.5179 24.7074 71.7814L29.6906 69.6419C28.8514 67.7195 28.2051 65.6782 27.7672 63.5387Z" fill="#65ABD8"/>
<path id="Vector_206" d="M33.0892 62.4741L27.7672 63.5387C28.1999 65.6782 28.8514 67.7143 29.6906 69.6419L34.6738 67.5024C33.9858 65.9159 33.4489 64.2364 33.0892 62.4741Z" fill="#7EB9DF"/>
<path id="Vector_207" d="M38.4165 61.4095L33.0945 62.4741C33.4541 64.2364 33.9858 65.9159 34.6791 67.5024L39.6623 65.3629C39.1202 64.1175 38.698 62.7945 38.4165 61.4095Z" fill="#97C7E5"/>
<path id="Vector_208" d="M43.7385 60.3501L38.4165 61.4147C38.698 62.7997 39.1202 64.1226 39.6623 65.3681L44.6455 63.2286C44.2493 62.319 43.9418 61.3578 43.7385 60.3501Z" fill="#B1D4EB"/>
<path id="Vector_209" d="M49.0605 59.2855L43.7385 60.3501C43.9418 61.3578 44.2494 62.319 44.6455 63.2286L49.6287 61.0891C49.3785 60.5206 49.1908 59.916 49.0605 59.2855Z" fill="#CAE2F2"/>
<path id="Vector_210" d="M54.617 58.9496C54.518 58.7171 54.4398 58.4742 54.3877 58.2209L49.0657 59.2855C49.196 59.916 49.3836 60.5206 49.6338 61.0891L54.617 58.9496Z" fill="#E3F0F8"/>
</g>
<g id="Group_22">
<path id="Vector_211" d="M9.75785 78.1895L4.77466 80.3289C6.41661 84.0911 8.41302 87.5898 10.717 90.8093L15.1424 87.6931C13.0574 84.7785 11.2486 81.6054 9.75785 78.1946V78.1895Z" fill="#0040BA"/>
<path id="Vector_212" d="M14.741 76.0499L9.75781 78.1894C11.2434 81.6002 13.0574 84.7732 15.1424 87.6879L19.5678 84.5717C17.6965 81.9568 16.0754 79.1145 14.741 76.0551V76.0499Z" fill="#1953C1"/>
<path id="Vector_213" d="M19.7294 73.9105L14.7462 76.05C16.0806 79.1094 17.7069 81.9517 19.573 84.5666L23.9985 81.4504C22.3461 79.1404 20.9074 76.6185 19.7294 73.9157V73.9105Z" fill="#3266C8"/>
<path id="Vector_214" d="M24.7127 71.7761L19.7295 73.9156C20.9075 76.6236 22.3462 79.1403 23.9986 81.4503L28.424 78.3341C26.9854 76.3238 25.7343 74.1327 24.7075 71.7813L24.7127 71.7761Z" fill="#4C79CE"/>
<path id="Vector_215" d="M29.6958 69.6367L24.7126 71.7762C25.7395 74.1276 26.9905 76.3187 28.4292 78.329L32.8546 75.2077C31.6297 73.4971 30.5663 71.6367 29.6958 69.6367Z" fill="#658CD5"/>
<path id="Vector_216" d="M34.679 67.5023L29.6958 69.6418C30.5715 71.6418 31.6297 73.5022 32.8546 75.2127L37.2801 72.0914C36.274 70.6805 35.3983 69.1509 34.679 67.5023Z" fill="#7E9EDC"/>
<path id="Vector_217" d="M39.6623 65.3629L34.6791 67.5024C35.3984 69.1509 36.2741 70.6858 37.2801 72.0914L41.7056 68.9752C40.9133 67.8693 40.2252 66.66 39.6571 65.3629H39.6623Z" fill="#97B1E3"/>
<path id="Vector_218" d="M44.6454 63.2234L39.6622 65.3629C40.2304 66.66 40.9185 67.8641 41.7108 68.9752L46.1362 65.859C45.5576 65.0528 45.0572 64.1743 44.6454 63.2286V63.2234Z" fill="#B1C4E9"/>
<path id="Vector_219" d="M49.6338 61.0891L44.6506 63.2286C45.0624 64.1743 45.5628 65.0528 46.1414 65.859L50.5669 62.7428C50.2072 62.2364 49.8892 61.6886 49.6338 61.0943V61.0891Z" fill="#CAD7F0"/>
<path id="Vector_220" d="M54.9923 59.6162C54.8463 59.4095 54.7212 59.1873 54.617 58.9496L49.6338 61.0891C49.8944 61.6782 50.2072 62.2312 50.5668 62.7376L54.9923 59.6214V59.6162Z" fill="#E3EAF7"/>
</g>
<g id="Group_23">
<path id="Vector_221" d="M15.1529 87.6776L10.7274 90.7938C13.12 94.1374 15.8096 97.1503 18.7339 99.822L22.4087 95.8583C19.7608 93.4346 17.3213 90.706 15.1529 87.6776Z" fill="#0229BA"/>
<path id="Vector_222" d="M19.5783 84.5614L15.1528 87.6776C17.3213 90.706 19.7607 93.4346 22.4087 95.8583L26.0835 91.8946C23.7066 89.7241 21.5226 87.2745 19.5731 84.5614H19.5783Z" fill="#1B3EC1"/>
<path id="Vector_223" d="M24.0038 81.4452L19.5784 84.5614C21.5226 87.2797 23.7119 89.7241 26.0888 91.8946L29.7637 87.9308C27.663 86.0084 25.7292 83.843 24.0038 81.44V81.4452Z" fill="#3453C8"/>
<path id="Vector_224" d="M28.4345 78.3238L24.009 81.44C25.7292 83.843 27.663 86.0084 29.7689 87.9308L33.4437 83.9671C31.6141 82.2979 29.9357 80.4116 28.4345 78.3238Z" fill="#4D68CE"/>
<path id="Vector_225" d="M32.8599 75.2076L28.4344 78.3238C29.9304 80.4116 31.6141 82.2978 33.4437 83.967L37.1186 80.0033C35.5652 78.5822 34.1318 76.9801 32.8599 75.2024V75.2076Z" fill="#667DD5"/>
<path id="Vector_226" d="M37.2853 72.0862L32.8599 75.2024C34.1317 76.9801 35.5652 78.5822 37.1185 80.0033L40.7934 76.0396C39.5111 74.8665 38.333 73.5487 37.2853 72.0862Z" fill="#7F93DC"/>
<path id="Vector_227" d="M41.7107 68.97L37.2853 72.0862C38.333 73.5487 39.511 74.8717 40.7933 76.0396L44.4682 72.0759C43.4621 71.156 42.5343 70.1173 41.7107 68.9648V68.97Z" fill="#98A8E3"/>
<path id="Vector_228" d="M46.1415 65.8538L41.7161 68.97C42.5396 70.1224 43.4675 71.1611 44.4735 72.081L48.1483 68.1173C47.4134 67.4455 46.741 66.691 46.1415 65.8538Z" fill="#B1BDE9"/>
<path id="Vector_229" d="M50.5669 62.7325L46.1415 65.8487C46.7409 66.6859 47.4186 67.4404 48.1483 68.1122L51.8232 64.1485C51.3645 63.7299 50.9422 63.2544 50.5617 62.7273L50.5669 62.7325Z" fill="#CAD2F0"/>
<path id="Vector_230" d="M55.5032 60.1898C55.3155 60.0193 55.1487 59.8281 54.9923 59.6162L50.5669 62.7324C50.9422 63.2595 51.3644 63.7298 51.8283 64.1536L55.5032 60.1898Z" fill="#E3E7F7"/>
</g>
<g id="Group_24">
<path id="Vector_231" d="M22.4191 95.8531L18.7443 99.8168C21.7884 102.592 25.0514 104.985 28.4709 106.995L31.2387 102.359C28.1373 100.535 25.1818 98.3698 22.4243 95.8531H22.4191Z" fill="#4D22B3"/>
<path id="Vector_232" d="M26.0939 91.8893L22.4191 95.8531C25.1765 98.3698 28.132 100.535 31.2335 102.359L34.0013 97.7238C31.2231 96.0908 28.5699 94.1477 26.0991 91.8893H26.0939Z" fill="#5F38BB"/>
<path id="Vector_233" d="M29.7688 87.9257L26.094 91.8894C28.57 94.1426 31.2179 96.0909 33.9962 97.7239L36.7641 93.0883C34.3038 91.6413 31.9581 89.9204 29.7688 87.9257Z" fill="#704EC2"/>
<path id="Vector_234" d="M33.4436 83.9619L29.7688 87.9256C31.9581 89.9204 34.3037 91.6413 36.764 93.0883L39.5319 88.4528C37.3948 87.197 35.3514 85.6983 33.4489 83.9619H33.4436Z" fill="#8263CA"/>
<path id="Vector_235" d="M37.1237 80.0033L33.4489 83.967C35.3514 85.7034 37.3947 87.1969 39.5319 88.4579L42.2998 83.8223C40.4806 82.7526 38.7448 81.4813 37.1289 80.0033H37.1237Z" fill="#9379D1"/>
<path id="Vector_236" d="M40.7985 76.0396L37.1237 80.0033C38.7395 81.4813 40.4753 82.7526 42.2945 83.8223L45.0624 79.1868C43.5664 78.3082 42.1329 77.2592 40.7985 76.0396Z" fill="#A58FD9"/>
<path id="Vector_237" d="M44.4734 72.0758L40.7986 76.0395C42.133 77.254 43.5612 78.3031 45.0624 79.1868L47.8303 74.5512C46.6523 73.8587 45.5264 73.037 44.4786 72.081L44.4734 72.0758Z" fill="#B6A5E0"/>
<path id="Vector_238" d="M48.1535 68.1122L44.4786 72.0759C45.5264 73.032 46.6523 73.8537 47.8303 74.5461L50.5982 69.9106C49.7381 69.4041 48.9197 68.8047 48.1587 68.1122H48.1535Z" fill="#C8BAE8"/>
<path id="Vector_239" d="M51.8283 64.1536L48.1534 68.1173C48.9145 68.815 49.7328 69.4144 50.5929 69.9157L53.3608 65.2802C52.8239 64.9649 52.3078 64.5877 51.8335 64.1536H51.8283Z" fill="#D9D0EF"/>
<path id="Vector_240" d="M56.1234 60.6446C55.9045 60.5154 55.696 60.3655 55.5031 60.1898L51.8282 64.1536C52.3078 64.5877 52.8186 64.9649 53.3555 65.2801L56.1234 60.6446Z" fill="#EBE6F7"/>
</g>
<g id="Group_25">
<path id="Vector_241" d="M31.2388 102.349L28.4762 106.985C32.0364 109.072 35.7268 110.742 39.4955 112.003L41.2313 106.897C37.8171 105.755 34.4706 104.241 31.2441 102.349H31.2388Z" fill="#7524AF"/>
<path id="Vector_242" d="M34.0015 97.7136L31.2389 102.349C34.4655 104.241 37.8119 105.75 41.2261 106.897L42.9567 101.791C39.8969 100.768 36.8945 99.4087 34.0015 97.7136Z" fill="#833AB7"/>
<path id="Vector_243" d="M36.7694 93.0832L34.0067 97.7187C36.8997 99.4138 39.9021 100.768 42.9619 101.796L44.6976 96.6904C41.9871 95.7808 39.3339 94.5819 36.7746 93.0832H36.7694Z" fill="#904FBF"/>
<path id="Vector_244" d="M39.5321 88.4476L36.7694 93.0832C39.3288 94.5819 41.982 95.7808 44.6925 96.6903L46.4283 91.5845C44.0722 90.7938 41.763 89.7551 39.5373 88.4476H39.5321Z" fill="#9E65C7"/>
<path id="Vector_245" d="M42.2999 83.8121L39.5372 88.4476C41.763 89.7551 44.0721 90.7938 46.4282 91.5845L48.1588 86.4787C46.1572 85.8069 44.192 84.9232 42.2999 83.8121Z" fill="#AC7BCF"/>
<path id="Vector_246" d="M45.0626 79.1817L42.2999 83.8173C44.1921 84.9283 46.1572 85.812 48.1588 86.4839L49.8946 81.378C48.2422 80.8251 46.6263 80.0964 45.0678 79.1817H45.0626Z" fill="#B990D6"/>
<path id="Vector_247" d="M47.8252 74.5461L45.0625 79.1817C46.6211 80.0964 48.2422 80.8251 49.8893 81.378L51.6251 76.2722C50.3272 75.8381 49.0553 75.2645 47.8304 74.5461H47.8252Z" fill="#C7A6DE"/>
<path id="Vector_248" d="M50.593 69.9106L47.8303 74.5462C49.0553 75.2645 50.3271 75.8382 51.6251 76.2723L53.3608 71.1664C52.4174 70.8512 51.4895 70.4326 50.5982 69.9106H50.593Z" fill="#D5BCE6"/>
<path id="Vector_249" d="M53.3557 65.2802L50.593 69.9157C51.4844 70.4377 52.4122 70.8563 53.3557 71.1715L55.0914 66.0657C54.4972 65.8693 53.9186 65.6058 53.3609 65.275L53.3557 65.2802Z" fill="#E2D1EE"/>
<path id="Vector_250" d="M56.822 60.9651C56.5822 60.8824 56.3476 60.779 56.1235 60.6447L53.3608 65.2802C53.9186 65.6058 54.5024 65.8693 55.0914 66.0709L56.8272 60.9651H56.822Z" fill="#F0E7F6"/>
</g>
<g id="Group_26">
<path id="Vector_251" d="M41.226 106.887L39.4955 111.987C43.4153 113.295 47.3769 114.163 51.3228 114.623L51.9483 109.274C48.3672 108.861 44.7758 108.07 41.226 106.887Z" fill="#A92BBC"/>
<path id="Vector_252" d="M42.9619 101.781L41.2313 106.881C44.7811 108.065 48.3725 108.855 51.9535 109.269L52.579 103.92C49.3681 103.548 46.152 102.84 42.9671 101.781H42.9619Z" fill="#B140C3"/>
<path id="Vector_253" d="M44.6924 96.68L42.9618 101.781C46.1467 102.845 49.368 103.548 52.5737 103.92L53.1992 98.5715C50.3584 98.2407 47.5123 97.6154 44.6924 96.6749V96.68Z" fill="#BA55C9"/>
<path id="Vector_254" d="M46.4282 91.5794L44.6976 96.6801C47.5176 97.6206 50.3637 98.2459 53.2045 98.5767L53.83 93.2279C51.3593 92.9437 48.8833 92.3959 46.4334 91.5794H46.4282Z" fill="#C26AD0"/>
<path id="Vector_255" d="M48.1588 86.4736L46.4282 91.5742C48.8781 92.3907 51.3593 92.9385 53.8248 93.2228L54.4503 87.8741C52.3497 87.6312 50.2438 87.1661 48.1588 86.4736Z" fill="#CB7FD7"/>
<path id="Vector_256" d="M49.8893 81.3729L48.1587 86.4736C50.2437 87.1712 52.3496 87.6312 54.4502 87.8741L55.0757 82.5254C53.3452 82.3238 51.6094 81.9466 49.8945 81.3729H49.8893Z" fill="#D393DD"/>
<path id="Vector_257" d="M51.6251 76.2723L49.8945 81.3729C51.6095 81.9466 53.3452 82.329 55.0758 82.5253L55.7013 77.1766C54.3408 77.0216 52.9751 76.7219 51.6251 76.2671V76.2723Z" fill="#DCA8E4"/>
<path id="Vector_258" d="M53.3557 71.1664L51.6251 76.267C52.9752 76.7166 54.3409 77.0164 55.7013 77.1766L56.3268 71.8279C55.3365 71.7142 54.3409 71.4971 53.3609 71.1664H53.3557Z" fill="#E4BDEB"/>
<path id="Vector_259" d="M55.0914 66.0658L53.3608 71.1665C54.346 71.4972 55.3364 71.7143 56.3268 71.8279L56.9523 66.4792C56.332 66.4069 55.7065 66.2725 55.0914 66.0658Z" fill="#EDD2F1"/>
<path id="Vector_260" d="M57.5779 61.1305C57.3277 61.0995 57.0774 61.0478 56.8272 60.9651L55.0967 66.0657C55.7118 66.2725 56.3373 66.4068 56.9576 66.4792L57.5831 61.1305H57.5779Z" fill="#F5E7F8"/>
</g>
<g id="Group_27">
<path id="Vector_261" d="M51.9483 109.264L51.3228 114.612C55.4302 115.083 59.4856 115.119 63.4471 114.752L62.9363 109.393C59.3501 109.724 55.67 109.693 51.9483 109.269V109.264Z" fill="#C82DB3"/>
<path id="Vector_262" d="M52.5737 103.915L51.9482 109.264C55.67 109.693 59.3501 109.724 62.9363 109.388L62.4255 104.029C59.2093 104.328 55.9098 104.297 52.5737 103.915Z" fill="#CD42BB"/>
<path id="Vector_263" d="M53.1992 98.5662L52.5737 103.915C55.9098 104.297 59.2093 104.328 62.4254 104.029L61.9146 98.6696C59.0686 98.9331 56.1495 98.9073 53.194 98.5714L53.1992 98.5662Z" fill="#D357C2"/>
<path id="Vector_264" d="M53.8247 93.2175L53.1992 98.5662C56.1547 98.9073 59.0685 98.928 61.9198 98.6644L61.409 93.3054C58.933 93.5328 56.3945 93.5121 53.8247 93.2175Z" fill="#D86BCA"/>
<path id="Vector_265" d="M54.4503 87.8688L53.8248 93.2175C56.3946 93.5121 58.9331 93.5327 61.4091 93.3053L60.8983 87.9463C58.7924 88.1427 56.6344 88.122 54.4503 87.8739V87.8688Z" fill="#DE80D1"/>
<path id="Vector_266" d="M55.0758 82.5201L54.4503 87.8688C56.6344 88.122 58.7924 88.1375 60.8982 87.9412L60.3874 82.5821C58.6516 82.7423 56.8742 82.7268 55.0758 82.5201Z" fill="#E395D9"/>
<path id="Vector_267" d="M55.7013 77.1765L55.0758 82.5252C56.8741 82.7319 58.6516 82.7474 60.3874 82.5872L59.8766 77.2282C58.5109 77.3522 57.1139 77.3419 55.7013 77.1817V77.1765Z" fill="#E9AAE0"/>
<path id="Vector_268" d="M56.3268 71.8278L55.7013 77.1765C57.1139 77.3367 58.5161 77.3522 59.8765 77.223L59.3657 71.8639C58.3701 71.957 57.3537 71.9466 56.3268 71.8278Z" fill="#EEBEE8"/>
<path id="Vector_269" d="M56.9523 66.4791L56.3268 71.8278C57.3589 71.9467 58.3753 71.957 59.3657 71.864L58.8549 66.505C58.2346 66.5618 57.5934 66.5566 56.9471 66.4843L56.9523 66.4791Z" fill="#F4D3EF"/>
<path id="Vector_270" d="M58.3441 61.1407C58.0939 61.1665 57.8333 61.1614 57.5726 61.1304L56.9471 66.4791C57.5935 66.5514 58.2294 66.5566 58.8549 66.4998L58.3441 61.1407Z" fill="#F9E8F7"/>
</g>
<g id="Group_28">
<path id="Vector_271" d="M62.9363 109.377L63.4471 114.736C67.565 114.349 71.537 113.548 75.3369 112.375L73.7158 107.238C70.2755 108.302 66.6737 109.031 62.9415 109.377H62.9363Z" fill="#D2278D"/>
<path id="Vector_272" d="M62.4254 104.018L62.9362 109.377C66.6684 109.026 70.2703 108.302 73.7106 107.238L72.0895 102.101C69.0036 103.057 65.7719 103.708 62.4254 104.024V104.018Z" fill="#D63C98"/>
<path id="Vector_273" d="M61.9198 98.6593L62.4306 104.018C65.7771 103.703 69.0089 103.052 72.0947 102.096L70.4736 96.959C67.7422 97.8014 64.8857 98.3802 61.925 98.6593H61.9198Z" fill="#DB52A3"/>
<path id="Vector_274" d="M61.4089 93.3002L61.9198 98.6593C64.8805 98.3802 67.737 97.8066 70.4683 96.959L68.8472 91.8222C66.4755 92.556 63.9891 93.0573 61.4141 93.3002H61.4089Z" fill="#DF67AF"/>
<path id="Vector_275" d="M60.8982 87.936L61.409 93.2951C63.984 93.0522 66.4704 92.5509 68.8421 91.8171L67.221 86.6802C65.2038 87.3055 63.0875 87.7345 60.8982 87.936Z" fill="#E47CBA"/>
<path id="Vector_276" d="M60.3873 82.577L60.8982 87.936C63.0874 87.7293 65.2037 87.3055 67.221 86.6802L65.5999 81.5434C63.9371 82.0602 62.1961 82.4116 60.3925 82.577H60.3873Z" fill="#E892C5"/>
<path id="Vector_277" d="M59.8765 77.218L60.3873 82.577C62.1908 82.4065 63.9318 82.0551 65.5946 81.5434L63.9735 76.4066C62.6652 76.8097 61.2943 77.0888 59.8765 77.2231V77.218Z" fill="#EDA7D0"/>
<path id="Vector_278" d="M59.3656 71.8588L59.8764 77.2179C61.2942 77.0835 62.6651 76.8096 63.9735 76.4014L62.3524 71.2645C61.3985 71.5591 60.4029 71.7606 59.3708 71.8588H59.3656Z" fill="#F1BCDC"/>
<path id="Vector_279" d="M58.8549 66.4998L59.3657 71.8588C60.3978 71.7606 61.3934 71.5591 62.3473 71.2645L60.7262 66.1277C60.1319 66.3137 59.5064 66.4378 58.8549 66.4998Z" fill="#F6D2E7"/>
<path id="Vector_280" d="M59.0998 60.9857C58.86 61.0581 58.6046 61.1097 58.344 61.1356L58.8548 66.4946C59.5012 66.4326 60.1267 66.3086 60.7261 66.1226L59.105 60.9857H59.0998Z" fill="#FAE7F2"/>
</g>
<g id="Group_29">
<path id="Vector_281" d="M73.7106 107.228L75.3317 112.364C79.2776 111.14 82.9993 109.532 86.4657 107.605L83.8021 102.912C80.6589 104.664 77.2864 106.117 73.7106 107.228Z" fill="#E5276F"/>
<path id="Vector_282" d="M72.0844 102.091L73.7055 107.228C77.2813 106.117 80.6538 104.664 83.7969 102.912L81.1333 98.2201C78.3186 99.7911 75.2901 101.093 72.0844 102.091Z" fill="#E83C7D"/>
<path id="Vector_283" d="M70.4633 96.9539L72.0844 102.091C75.2901 101.093 78.3134 99.7911 81.1333 98.2201L78.4697 93.5276C75.9781 94.9178 73.3041 96.0702 70.4633 96.9539Z" fill="#EA528B"/>
<path id="Vector_284" d="M68.8422 91.8119L70.4633 96.9488C73.2989 96.0651 75.9781 94.9126 78.4697 93.5225L75.8061 88.8301C73.6377 90.0394 71.3129 91.0419 68.8422 91.8068V91.8119Z" fill="#ED679A"/>
<path id="Vector_285" d="M67.2158 86.6751L68.8369 91.812C71.3025 91.0471 73.6325 90.0394 75.8009 88.8353L73.1373 84.1429C71.292 85.1713 69.3165 86.024 67.2158 86.6751Z" fill="#EF7CA8"/>
<path id="Vector_286" d="M65.5947 81.5383L67.2158 86.6751C69.3165 86.024 71.292 85.1713 73.1373 84.1429L70.4737 79.4505C68.9568 80.298 67.3253 81.0008 65.5947 81.5383Z" fill="#F292B6"/>
<path id="Vector_287" d="M63.9736 76.4014L65.5947 81.5383C67.3253 81.0008 68.9516 80.298 70.4737 79.4505L67.8101 74.7581C66.6164 75.4247 65.3341 75.9777 63.9736 76.3963V76.4014Z" fill="#F4A7C4"/>
<path id="Vector_288" d="M62.3473 71.2646L63.9684 76.4014C65.3289 75.9776 66.6112 75.4247 67.8048 74.7632L65.1412 70.0708C64.2707 70.5566 63.3377 70.9597 62.3473 71.2646Z" fill="#F7BCD3"/>
<path id="Vector_289" d="M60.7262 66.1226L62.3473 71.2595C63.3377 70.9546 64.2707 70.5515 65.1412 70.0657L62.4776 65.3733C61.9303 65.6782 61.3465 65.9314 60.7262 66.1226Z" fill="#F9D2E1"/>
<path id="Vector_290" d="M59.8088 60.686C59.5898 60.8101 59.3501 60.9134 59.0999 60.9909L60.721 66.1278C61.3412 65.9366 61.9251 65.6833 62.4724 65.3784L59.8088 60.686Z" fill="#FCE7EF"/>
</g>
<g id="Group_30">
<path id="Vector_291" d="M83.7969 102.902L86.4605 107.595C90.0624 105.584 93.3671 103.243 96.3539 100.644L92.7625 96.6025C90.0571 98.9642 87.0651 101.078 83.7969 102.902Z" fill="#F22540"/>
<path id="Vector_292" d="M81.1281 98.2097L83.7917 102.902C87.0547 101.078 90.0519 98.9591 92.7572 96.6025L89.1658 92.5613C86.7368 94.6749 84.0575 96.5767 81.1281 98.2097Z" fill="#F33B53"/>
<path id="Vector_293" d="M78.4645 93.5225L81.1281 98.2149C84.0575 96.5819 86.742 94.6801 89.1658 92.5665L85.5744 88.5252C83.4268 90.396 81.0551 92.0755 78.4645 93.5225Z" fill="#F55066"/>
<path id="Vector_294" d="M75.8009 88.8301L78.4645 93.5225C81.0551 92.0755 83.432 90.396 85.5744 88.5252L81.9829 84.4839C80.1169 86.1118 78.0527 87.5743 75.7957 88.8301H75.8009Z" fill="#F66679"/>
<path id="Vector_295" d="M73.1372 84.1377L75.8008 88.8301C78.0526 87.5691 80.122 86.1118 81.9881 84.4839L78.3967 80.4427C76.8068 81.8277 75.0554 83.0679 73.1372 84.1377Z" fill="#F77B8C"/>
<path id="Vector_296" d="M70.4684 79.4452L73.132 84.1376C75.0502 83.0679 76.8016 81.8224 78.3915 80.4426L74.8 76.4014C73.4917 77.5435 72.0426 78.5667 70.4684 79.4452Z" fill="#F9919E"/>
<path id="Vector_297" d="M67.8048 74.7581L70.4684 79.4505C72.0478 78.5668 73.4917 77.5435 74.8 76.4066L71.2086 72.3654C70.1817 73.2646 69.0401 74.0656 67.7996 74.7581H67.8048Z" fill="#FAA6B1"/>
<path id="Vector_298" d="M65.1411 70.0657L67.8047 74.7581C69.0453 74.0656 70.1816 73.2594 71.2137 72.3653L67.6223 68.3241C66.8717 68.9752 66.0429 69.5644 65.1411 70.0708V70.0657Z" fill="#FBBCC4"/>
<path id="Vector_299" d="M62.4723 65.3733L65.1359 70.0657C66.0377 69.5592 66.8665 68.9753 67.6171 68.319L64.0256 64.2777C63.5565 64.686 63.0352 65.0529 62.4723 65.3733Z" fill="#FDD1D7"/>
<path id="Vector_300" d="M60.4394 60.2416C60.2518 60.4069 60.0381 60.5568 59.8087 60.686L62.4723 65.3784C63.0405 65.0632 63.5565 64.6963 64.0257 64.2828L60.4342 60.2416H60.4394Z" fill="#FEE7EA"/>
</g>
</g>
<defs>
<clipPath id="clip0_482_9109">
<rect width="116" height="115" fill="white"/>
</clipPath>
</defs>
</svg>
