<?xml version="1.0" standalone="no"?>
<!DOCTYPE svg PUBLIC "-//W3C//DTD SVG 20010904//EN"
 "http://www.w3.org/TR/2001/REC-SVG-20010904/DTD/svg10.dtd">
<svg version="1.0" xmlns="http://www.w3.org/2000/svg"
 width="950.000000pt" height="350.000000pt" viewBox="0 0 950.000000 350.000000"
 preserveAspectRatio="xMidYMid meet">

<g transform="translate(0.000000,350.000000) scale(0.100000,-0.100000)"
fill="#000000" stroke="none">
<path d="M4110 3360 c0 -5 7 -10 15 -10 8 0 15 5 15 10 0 6 -7 10 -15 10 -8 0
-15 -4 -15 -10z"/>
<path d="M6430 3320 c0 -5 5 -10 10 -10 6 0 10 5 10 10 0 6 -4 10 -10 10 -5 0
-10 -4 -10 -10z"/>
<path d="M3543 3254 c-8 -22 10 -49 32 -49 10 0 22 7 28 16 15 24 1 49 -28 49
-15 0 -28 -7 -32 -16z"/>
<path d="M4951 3216 c-16 -19 2 -56 28 -56 28 0 47 28 34 48 -13 22 -47 27
-62 8z"/>
<path d="M6170 3200 c0 -5 5 -10 10 -10 6 0 10 5 10 10 0 6 -4 10 -10 10 -5 0
-10 -4 -10 -10z"/>
<path d="M5382 3078 c-62 -45 -112 -87 -112 -94 0 -6 8 -15 18 -19 32 -13 446
-157 487 -169 41 -13 75 -11 75 4 0 4 -19 53 -43 108 l-43 101 -76 -34 -77
-33 -56 109 c-31 60 -57 109 -59 109 -1 0 -53 -37 -114 -82z"/>
<path d="M5644 3126 c-11 -28 1 -51 25 -51 28 0 47 25 38 49 -8 20 -56 21 -63
2z"/>
<path d="M6094 3046 c-10 -25 0 -51 20 -54 27 -6 48 25 35 49 -12 22 -47 25
-55 5z"/>
<path d="M3730 3025 c0 -8 5 -15 10 -15 6 0 10 7 10 15 0 8 -4 15 -10 15 -5 0
-10 -7 -10 -15z"/>
<path d="M4780 3025 c0 -9 5 -15 11 -13 6 2 11 8 11 13 0 5 -5 11 -11 13 -6 2
-11 -4 -11 -13z"/>
<path d="M4080 2930 l0 -71 68 3 67 3 3 68 3 67 -71 0 -70 0 0 -70z"/>
<path d="M4240 2935 l0 -65 65 0 65 0 0 65 0 65 -65 0 -65 0 0 -65z"/>
<path d="M4612 2758 c-71 -39 -177 -148 -197 -204 -10 -27 -33 -82 -51 -123
-29 -63 -34 -84 -33 -143 1 -57 -2 -75 -20 -99 -26 -35 -51 -102 -51 -136 0
-21 4 -24 23 -20 12 4 42 9 67 13 25 4 58 13 73 21 27 14 30 13 72 -26 65 -60
79 -54 76 35 -1 49 1 54 36 83 l37 31 -37 33 c-60 56 -74 118 -34 155 13 12
28 22 35 22 6 0 17 8 24 18 7 10 41 45 76 77 l63 58 55 -59 c40 -44 54 -67 54
-89 0 -39 -34 -112 -67 -147 l-26 -27 18 -46 c34 -90 109 -138 270 -172 44 -9
97 -30 142 -56 40 -23 100 -58 133 -76 78 -45 169 -127 210 -191 53 -82 72
-159 72 -287 0 -62 4 -113 8 -113 3 0 65 67 137 149 l131 150 7 74 c8 91 2
104 -68 155 -78 58 -81 63 -73 133 7 58 6 61 -24 89 -17 16 -52 36 -78 45 -26
10 -79 32 -118 51 -62 29 -74 40 -87 73 -21 51 -60 82 -154 121 -227 93 -270
125 -304 228 -27 85 -62 145 -97 170 -74 53 -229 68 -300 30z"/>
<path d="M3186 2681 c-4 -5 -2 -12 3 -15 5 -4 12 -2 15 3 4 5 2 12 -3 15 -5 4
-12 2 -15 -3z"/>
<path d="M3710 2675 c0 -8 5 -15 10 -15 6 0 10 7 10 15 0 8 -4 15 -10 15 -5 0
-10 -7 -10 -15z"/>
<path d="M4023 2654 c-8 -22 10 -49 32 -49 10 0 22 7 28 16 15 24 1 49 -28 49
-15 0 -28 -7 -32 -16z"/>
<path d="M5702 2601 c4 -13 18 -16 19 -4 0 4 -5 9 -11 12 -7 2 -11 -2 -8 -8z"/>
<path d="M5990 2535 c0 -8 5 -15 10 -15 6 0 10 7 10 15 0 8 -4 15 -10 15 -5 0
-10 -7 -10 -15z"/>
<path d="M3283 2510 c-106 -42 -173 -137 -181 -256 -6 -91 15 -156 69 -218
114 -129 311 -136 436 -14 87 86 112 218 62 328 -35 74 -67 110 -130 145 -72
39 -179 45 -256 15z m117 -27 c-1 -31 -3 -35 -11 -20 -6 9 -7 26 -4 37 10 30
15 24 15 -17z m-175 -63 c10 -11 15 -23 12 -27 -8 -7 -47 25 -47 39 0 14 16 9
35 -12z m357 -12 c-12 -12 -25 -18 -29 -14 -4 4 3 16 16 27 31 25 41 15 13
-13z m-152 -175 c14 -7 47 -22 74 -33 73 -30 49 -35 -28 -6 -37 14 -73 25 -79
23 -7 -1 -12 6 -11 16 0 9 2 52 4 95 l4 77 5 -80 c5 -72 8 -81 31 -92z m-255
-3 c-3 -5 -19 -10 -36 -10 -16 0 -29 5 -29 10 0 6 16 10 36 10 21 0 33 -4 29
-10z m505 0 c0 -5 -13 -10 -30 -10 -16 0 -30 5 -30 10 0 6 14 10 30 10 17 0
30 -4 30 -10z m-442 -166 c-4 -20 -34 -41 -44 -31 -8 8 24 47 38 47 5 0 8 -7
6 -16z m347 -4 c10 -11 15 -23 12 -27 -8 -7 -47 25 -47 39 0 14 16 9 35 -12z
m-186 -87 c0 -34 -1 -36 -11 -16 -6 12 -8 29 -5 37 11 27 17 18 16 -21z"/>
<path d="M6631 2375 c-51 -19 -95 -35 -96 -37 -2 -2 7 -28 19 -58 18 -44 27
-56 47 -58 32 -3 151 41 163 61 10 16 -18 128 -32 127 -4 -1 -49 -16 -101 -35z"/>
<path d="M4593 2308 c2 -7 10 -13 17 -13 7 0 15 6 18 13 2 7 -5 12 -18 12 -13
0 -20 -5 -17 -12z"/>
<path d="M4796 2311 c-7 -11 22 -23 35 -15 5 3 7 10 4 15 -8 12 -32 12 -39 0z"/>
<path d="M4093 1942 c-24 -9 -43 -19 -43 -23 0 -3 17 -9 38 -13 20 -3 54 -17
75 -32 21 -14 45 -23 54 -20 12 5 6 17 -27 56 -23 28 -45 50 -48 49 -4 0 -26
-8 -49 -17z"/>
<path d="M3117 1853 c-12 -11 -8 -40 7 -52 28 -23 68 17 45 45 -12 15 -41 19
-52 7z"/>
<path d="M6151 1668 c12 -67 50 -232 53 -235 2 -2 25 54 52 124 27 69 50 130
52 134 2 3 -5 9 -14 13 -12 5 -28 -5 -52 -31 l-34 -38 -33 38 -33 37 9 -42z"/>
<path d="M5550 1275 l0 -110 35 53 c39 57 39 59 -14 137 l-21 30 0 -110z"/>
<path d="M4126 1143 c-3 -21 -6 -52 -6 -69 0 -24 -21 -60 -84 -145 -46 -63
-80 -115 -76 -117 4 -1 40 13 81 33 l73 35 174 0 173 0 -3 62 -3 63 -48 7
c-56 8 -87 26 -119 68 -18 25 -132 100 -151 100 -2 0 -7 -17 -11 -37z"/>
<path d="M5555 767 c-3 -34 -5 -129 -3 -212 l3 -150 82 83 c81 83 169 190 162
196 -10 8 -149 95 -191 119 l-46 27 -7 -63z"/>
<path d="M4891 618 c-1 -71 1 -128 4 -128 12 0 174 102 205 129 29 25 33 32
20 41 -8 5 -22 7 -30 3 -8 -3 -41 -13 -73 -21 -55 -14 -59 -14 -77 4 -11 10
-26 37 -34 59 -14 39 -15 36 -15 -87z"/>
<path d="M3678 513 c11 -21 40 -57 63 -78 l43 -39 12 -145 c7 -80 15 -170 19
-199 l6 -52 337 2 c185 1 309 3 275 5 -35 2 -63 7 -63 12 0 4 15 22 34 40 29
28 37 31 55 22 12 -7 50 -14 86 -18 l65 -6 0 38 c0 36 -1 37 -32 33 -41 -6
-85 8 -98 32 -15 29 -12 37 16 44 14 4 24 10 22 14 -2 4 -14 31 -28 60 l-25
52 -120 0 c-158 0 -194 6 -201 35 -5 20 -16 24 -97 35 -165 22 -270 59 -349
122 l-40 31 20 -40z"/>
<path d="M5421 294 c-2 -88 -16 -120 -65 -149 -39 -23 -53 -25 -164 -25 -110
0 -122 -2 -122 -17 1 -43 12 -46 142 -40 139 6 167 15 193 60 19 32 33 170 22
212 -2 11 -5 -7 -6 -41z"/>
<path d="M5117 3 c18 -2 50 -2 70 0 21 2 7 4 -32 4 -38 0 -55 -2 -38 -4z"/>
</g>
</svg>
