<svg width="424" height="352" viewBox="0 0 424 352" fill="none" xmlns="http://www.w3.org/2000/svg">
<path opacity="0.81" d="M419.228 256.176C428.492 210.775 425.145 168.816 401.407 128.872C384.495 100.412 355.117 76.6408 321.516 76.0132C289.819 75.4219 261.289 94.8797 229.975 99.8005C178.461 107.896 125.217 76.0766 75.1847 90.6223C48.4112 98.4062 26.6392 119.12 14.3438 143.726C2.04849 168.331 -1.43471 196.494 0.500521 223.802C3.93952 272.338 25.7508 320.601 63.0075 352H366.491C391.985 322.857 413.235 285.543 419.228 256.176Z" fill="#E2EEFF"/>
<g clip-path="url(#clip0_726_18098)">
<path d="M163.596 235.479H122.385C121.886 235.479 121.406 235.28 121.053 234.927C120.699 234.574 120.501 234.095 120.501 233.596C120.501 233.096 120.699 232.618 121.053 232.264C121.406 231.911 121.886 231.713 122.385 231.713H163.596C164.096 231.713 164.575 231.911 164.929 232.264C165.282 232.618 165.481 233.096 165.481 233.596C165.481 234.095 165.282 234.574 164.929 234.927C164.575 235.28 164.096 235.479 163.596 235.479Z" fill="#1A69DF"/>
<path d="M89.9956 245.557C89.9955 245.637 90.0112 245.716 90.0418 245.79C90.0724 245.864 90.1173 245.931 90.1739 245.988C90.2306 246.045 90.2979 246.09 90.372 246.12C90.446 246.151 90.5254 246.166 90.6055 246.166H195.376C195.538 246.166 195.693 246.102 195.808 245.988C195.922 245.873 195.986 245.718 195.986 245.556C195.986 245.394 195.922 245.239 195.808 245.125C195.693 245.011 195.538 244.946 195.376 244.946H90.6055C90.5254 244.946 90.446 244.962 90.372 244.992C90.2979 245.023 90.2306 245.068 90.1739 245.124C90.1173 245.181 90.0724 245.248 90.0418 245.322C90.0112 245.396 89.9955 245.476 89.9956 245.556V245.557Z" fill="#3F3D56"/>
<path d="M311.044 122.684C329.454 122.684 344.379 107.771 344.379 89.3743C344.379 70.9778 329.454 56.0646 311.044 56.0646C292.633 56.0646 277.708 70.9778 277.708 89.3743C277.708 107.771 292.633 122.684 311.044 122.684Z" fill="#FF6884"/>
<path d="M62 287.647C61.9999 287.727 62.0155 287.806 62.0462 287.88C62.0768 287.954 62.1217 288.021 62.1783 288.078C62.235 288.135 62.3023 288.179 62.3763 288.21C62.4504 288.241 62.5298 288.256 62.6099 288.256H330.471C330.633 288.256 330.789 288.192 330.903 288.078C331.018 287.963 331.082 287.808 331.082 287.646C331.082 287.484 331.018 287.329 330.903 287.215C330.789 287.101 330.633 287.036 330.471 287.036H62.6099C62.5297 287.036 62.4502 287.052 62.3761 287.082C62.302 287.113 62.2346 287.158 62.178 287.215C62.1213 287.272 62.0764 287.339 62.0459 287.413C62.0153 287.487 61.9997 287.567 62 287.647Z" fill="#3F3D56"/>
<path d="M65.8745 246.466L65.0173 245.532L148.645 169.276L178.776 182.773L211.311 127.02L238.043 114.145L262.808 155.393C276.179 120.804 309.713 84.6139 349.895 47.8968L350.883 48.6962C313.197 84.7499 280.951 120.968 262.652 157.607L239.743 119.343C239.221 118.47 238.393 117.822 237.42 117.523C236.448 117.224 235.398 117.296 234.476 117.725C219.864 124.519 207.677 135.608 199.543 149.51L179.163 184.342L174.51 182.259C166.897 178.848 158.452 177.735 150.214 179.056C141.976 180.377 134.304 184.075 128.141 189.695L65.8745 246.466Z" fill="#3F3D56"/>
<path d="M351.78 54.8364L350.511 54.9246L348.461 50.4934L343.874 49.559L343.695 48.2996L351.256 47.2261L351.78 54.8364Z" fill="#3F3D56"/>
<path d="M221.334 81.983L225.83 64.7151L243.342 63.8731L248.581 87.6778L221.334 81.983Z" fill="#FFB6B6"/>
<path opacity="0.1" d="M221.334 81.983L225.83 64.7151L243.342 63.8731L248.581 87.6778L221.334 81.983Z" fill="black"/>
<path d="M232.859 74.379C244.533 74.379 253.997 64.9225 253.997 53.2572C253.997 41.5919 244.533 32.1354 232.859 32.1354C221.185 32.1354 211.721 41.5919 211.721 53.2572C211.721 64.9225 221.185 74.379 232.859 74.379Z" fill="#FFB6B6"/>
<path d="M244.521 57.7258C244.521 57.7258 236.491 41.8283 227.083 42.7461C222.261 43.157 217.465 43.836 212.718 44.78C212.718 44.78 209.924 32.4001 223.07 27.6378C223.07 27.6378 206.352 11.1703 226.257 3.09288C246.162 -4.98458 257.299 5.31781 257.299 5.31781C257.299 5.31781 272.032 20.015 253.476 30.9996C253.476 30.9996 267.255 49.5196 250.572 64.7837C250.572 64.7837 254.303 52.4287 250.41 54.7128C248.527 55.8693 246.557 56.879 244.518 57.733L244.521 57.7258Z" fill="#2F2E41"/>
<path d="M209.537 169.322L206.725 172.015L186.413 215.535L184.19 287.521H218.318L234.327 251.873L245.113 287.173H275.8L282.913 223.085L263.795 177.761L209.537 169.322Z" fill="#2F2E41"/>
<path d="M244.89 80.2285H222.098L197.306 93.5594L203.088 119.332C203.088 119.332 201.753 134.885 204.866 146.439C207.979 157.992 206.645 173.101 206.645 173.101L263.792 177.766L265.567 125.333L264.678 90.2287L244.889 80.2305L244.89 80.2285Z" fill="#E6E6E6"/>
<path d="M201.086 93.7784C201.086 93.7784 187.301 94.2228 185.077 103.11C182.854 111.997 181.075 157.767 181.075 157.767C181.075 157.767 182.409 184.925 197.306 172.012C212.204 159.1 210.87 119.997 210.87 119.997L201.086 93.7784Z" fill="#E6E6E6"/>
<path d="M334.799 320.488H253.559C252.237 320.486 250.97 319.96 250.035 319.026C249.1 318.092 248.574 316.826 248.572 315.505V231.582C248.574 230.261 249.1 228.995 250.035 228.061C250.97 227.127 252.237 226.601 253.559 226.599H334.8C336.122 226.601 337.389 227.127 338.324 228.061C339.259 228.995 339.785 230.261 339.787 231.582V315.502C339.786 316.823 339.26 318.091 338.325 319.025C337.39 319.96 336.122 320.486 334.799 320.488Z" fill="white"/>
<path d="M334.799 321.004H253.558C252.098 321.004 250.697 320.424 249.664 319.392C248.632 318.361 248.052 316.961 248.052 315.501V231.582C248.052 230.123 248.632 228.723 249.664 227.691C250.697 226.659 252.098 226.079 253.558 226.079H334.799C336.259 226.079 337.66 226.659 338.693 227.691C339.726 228.723 340.306 230.123 340.306 231.582V315.501C340.306 316.961 339.726 318.361 338.693 319.392C337.66 320.424 336.259 321.004 334.799 321.004ZM253.558 227.113C252.371 227.114 251.233 227.586 250.394 228.424C249.555 229.263 249.083 230.4 249.081 231.586V315.501C249.083 316.688 249.555 317.825 250.394 318.663C251.233 319.502 252.371 319.974 253.558 319.975H334.799C335.986 319.974 337.124 319.502 337.963 318.663C338.803 317.825 339.275 316.688 339.276 315.501V231.582C339.275 230.396 338.803 229.259 337.963 228.42C337.124 227.582 335.986 227.11 334.799 227.108L253.558 227.113Z" fill="#3F3D56"/>
<path d="M297.383 298.441H290.687C290.34 298.48 289.993 298.382 289.717 298.169C289.441 297.956 289.259 297.644 289.208 297.299V268.495C289.259 268.151 289.441 267.839 289.717 267.626C289.993 267.413 290.34 267.315 290.687 267.353H297.383C297.729 267.315 298.077 267.413 298.353 267.626C298.629 267.839 298.811 268.151 298.861 268.495V297.301C298.81 297.646 298.628 297.957 298.352 298.17C298.076 298.382 297.729 298.48 297.383 298.441Z" fill="#1A69DF"/>
<path d="M275.247 281.466C274.967 281.435 274.687 281.514 274.464 281.686C274.241 281.857 274.093 282.109 274.052 282.387V297.269C274.093 297.547 274.241 297.799 274.464 297.971C274.687 298.142 274.967 298.221 275.247 298.19H281.943C282.222 298.221 282.503 298.142 282.726 297.971C282.949 297.799 283.096 297.547 283.137 297.269V282.387C283.096 282.109 282.949 281.857 282.726 281.686C282.503 281.514 282.222 281.435 281.943 281.466H275.247Z" fill="#1A69DF"/>
<path d="M312.826 298.441H306.13C305.784 298.48 305.436 298.382 305.16 298.169C304.884 297.956 304.702 297.644 304.652 297.299V250.095C304.702 249.75 304.884 249.438 305.16 249.225C305.436 249.012 305.784 248.914 306.13 248.953H312.826C313.172 248.914 313.52 249.012 313.796 249.225C314.072 249.438 314.254 249.75 314.304 250.095V297.302C314.253 297.647 314.071 297.958 313.795 298.17C313.519 298.382 313.172 298.48 312.826 298.441Z" fill="#1A69DF"/>
<path d="M168.732 91.5109H161.084C160.688 91.5547 160.291 91.4433 159.976 91.2002C159.661 90.9571 159.453 90.6014 159.395 90.2079V57.3042C159.453 56.9108 159.661 56.555 159.976 56.312C160.291 56.0689 160.688 55.9575 161.084 56.0013H168.732C169.128 55.9575 169.525 56.0689 169.84 56.312C170.155 56.555 170.363 56.9108 170.42 57.3042V90.209C170.363 90.6024 170.155 90.9582 169.84 91.2012C169.525 91.4443 169.128 91.5557 168.732 91.512V91.5109Z" fill="#1A69DF"/>
<path d="M143.451 72.1209C143.132 72.087 142.812 72.1776 142.558 72.3737C142.304 72.5699 142.135 72.8564 142.087 73.1736V90.1726C142.135 90.4899 142.304 90.7764 142.558 90.9725C142.812 91.1686 143.132 91.2592 143.451 91.2254H151.1C151.419 91.2608 151.74 91.1708 151.995 90.9744C152.249 90.778 152.417 90.4906 152.464 90.1726V73.1736C152.417 72.8557 152.249 72.5682 151.995 72.3718C151.74 72.1754 151.419 72.0855 151.1 72.1209H143.451Z" fill="#1A69DF"/>
<path d="M186.379 91.512H178.731C178.335 91.5557 177.938 91.4443 177.623 91.2012C177.308 90.9582 177.1 90.6024 177.042 90.209V36.2842C177.1 35.8907 177.308 35.535 177.623 35.2919C177.938 35.0488 178.335 34.9374 178.731 34.9812H186.379C186.774 34.9374 187.172 35.0488 187.487 35.2919C187.802 35.535 188.01 35.8907 188.067 36.2842V90.209C188.01 90.6024 187.802 90.9582 187.487 91.2012C187.172 91.4443 186.774 91.5557 186.379 91.512Z" fill="#1A69DF"/>
<path d="M281.725 238.806C285.687 238.427 288.415 233.078 287.819 226.856C287.615 224.367 286.818 221.964 285.494 219.846L284.73 212.804L284.848 212.768L286.766 179.38C287.013 175.545 286.369 171.705 284.885 168.16C283.401 164.615 281.117 161.462 278.21 158.945C274.686 155.946 270.925 154.428 268.507 158.218C264.494 164.506 269.691 190.424 273.104 205.16L274.428 220.907C273.529 223.238 273.202 225.75 273.474 228.233C274.07 234.453 277.763 239.188 281.725 238.809V238.806Z" fill="#FFB6B6"/>
<path d="M259.787 91.1185C259.787 91.1185 271.35 86.6748 276.686 100.006C282.023 113.337 287.804 179.101 287.804 179.101L260.677 174.214L259.787 91.1185Z" fill="#E6E6E6"/>
<path d="M101.024 84.5953H85.4551C84.9553 84.5953 84.4761 84.3969 84.1227 84.0438C83.7693 83.6907 83.5708 83.2118 83.5708 82.7124C83.5708 82.2131 83.7693 81.7342 84.1227 81.3811C84.4761 81.028 84.9553 80.8296 85.4551 80.8296H101.024C101.524 80.8296 102.003 81.028 102.356 81.3811C102.71 81.7342 102.908 82.2131 102.908 82.7124C102.908 83.2118 102.71 83.6907 102.356 84.0438C102.003 84.3969 101.524 84.5953 101.024 84.5953Z" fill="#E6E6E6"/>
<path d="M101.024 57.9064H85.4551C84.9553 57.9064 84.4761 57.708 84.1227 57.3549C83.7693 57.0018 83.5708 56.5229 83.5708 56.0236C83.5708 55.5242 83.7693 55.0453 84.1227 54.6922C84.4761 54.3391 84.9553 54.1407 85.4551 54.1407H101.024C101.524 54.1407 102.003 54.3391 102.356 54.6922C102.71 55.0453 102.908 55.5242 102.908 56.0236C102.908 56.5229 102.71 57.0018 102.356 57.3549C102.003 57.708 101.524 57.9064 101.024 57.9064Z" fill="#E6E6E6"/>
<path d="M101.024 38.6607H85.4551C84.9553 38.6607 84.4761 38.4623 84.1227 38.1092C83.7693 37.7561 83.5708 37.2772 83.5708 36.7779C83.5708 36.2785 83.7693 35.7996 84.1227 35.4465C84.4761 35.0934 84.9553 34.895 85.4551 34.895H101.024C101.524 34.895 102.003 35.0934 102.356 35.4465C102.71 35.7996 102.908 36.2785 102.908 36.7779C102.908 37.2772 102.71 37.7561 102.356 38.1092C102.003 38.4623 101.524 38.6607 101.024 38.6607Z" fill="#E6E6E6"/>
<path d="M82.9458 91.6044C82.9457 91.6844 82.9613 91.7638 82.9919 91.8378C83.0226 91.9118 83.0675 91.979 83.1241 92.0356C83.1808 92.0922 83.2481 92.1371 83.3221 92.1677C83.3962 92.1983 83.4756 92.214 83.5557 92.2138H188.326C188.488 92.2138 188.643 92.1495 188.758 92.0352C188.872 91.9208 188.937 91.7656 188.937 91.6039C188.937 91.4421 188.872 91.2869 188.758 91.1725C188.643 91.0582 188.488 90.9939 188.326 90.9939H83.5557C83.4756 90.9938 83.3962 91.0094 83.3221 91.04C83.2481 91.0706 83.1808 91.1155 83.1241 91.1721C83.0675 91.2287 83.0226 91.296 82.9919 91.37C82.9613 91.444 82.9457 91.5233 82.9458 91.6033V91.6044Z" fill="#3F3D56"/>
<path d="M285.01 249.441C285.01 249.521 285.025 249.6 285.056 249.674C285.087 249.748 285.131 249.815 285.188 249.872C285.245 249.929 285.312 249.974 285.386 250.004C285.46 250.035 285.54 250.05 285.62 250.05H390.39C390.552 250.05 390.707 249.986 390.822 249.872C390.936 249.757 391.001 249.602 391.001 249.44C391.001 249.279 390.936 249.123 390.822 249.009C390.707 248.895 390.552 248.83 390.39 248.83H285.62C285.539 248.83 285.46 248.846 285.386 248.877C285.312 248.907 285.244 248.952 285.188 249.009C285.131 249.066 285.086 249.133 285.056 249.207C285.025 249.281 285.009 249.361 285.01 249.441Z" fill="#3F3D56"/>
<path d="M254.239 299.149C254.239 299.229 254.255 299.309 254.285 299.383C254.316 299.457 254.361 299.524 254.417 299.581C254.474 299.637 254.541 299.682 254.615 299.713C254.689 299.743 254.769 299.759 254.849 299.759H359.619C359.781 299.759 359.937 299.694 360.051 299.58C360.165 299.466 360.23 299.311 360.23 299.149C360.23 298.987 360.165 298.832 360.051 298.717C359.937 298.603 359.781 298.539 359.619 298.539H254.849C254.769 298.539 254.689 298.554 254.615 298.585C254.541 298.616 254.474 298.661 254.417 298.717C254.36 298.774 254.315 298.841 254.285 298.916C254.254 298.99 254.239 299.069 254.239 299.149Z" fill="#3F3D56"/>
<path d="M183.785 88.5208C179.823 88.8998 177.095 94.2488 177.691 100.471C177.895 102.96 178.692 105.363 180.016 107.481L180.78 114.523L180.662 114.559L178.743 147.949C178.496 151.784 179.139 155.624 180.624 159.169C182.108 162.714 184.392 165.868 187.299 168.384C190.824 171.383 194.584 172.901 197.002 169.111C201.015 162.823 195.818 136.905 192.404 122.169L191.081 106.422C191.98 104.091 192.307 101.579 192.035 99.0963C191.439 92.8762 187.745 88.1408 183.784 88.5198L183.785 88.5208Z" fill="#FFB6B6"/>
</g>
<defs>
<clipPath id="clip0_726_18098">
<rect width="329" height="321" fill="white" transform="translate(62)"/>
</clipPath>
</defs>
</svg>
