<svg width="79" height="40" viewBox="0 0 79 40" fill="none" xmlns="http://www.w3.org/2000/svg">
<rect width="79" height="40" rx="4" fill="#0469E3"/>
<path d="M17.4883 15.0059H20.4619C21.7516 15.0059 22.7246 15.1927 23.3809 15.5664C24.0371 15.9401 24.3652 16.585 24.3652 17.501C24.3652 17.8838 24.2969 18.2301 24.1602 18.54C24.028 18.8454 23.8343 19.0983 23.5791 19.2988C23.3239 19.4948 23.0094 19.627 22.6357 19.6953V19.7637C23.0231 19.832 23.3672 19.9528 23.668 20.126C23.9733 20.2992 24.2126 20.5475 24.3857 20.8711C24.5635 21.1947 24.6523 21.6139 24.6523 22.1289C24.6523 22.7396 24.5065 23.2591 24.2148 23.6875C23.9277 24.1159 23.5153 24.4417 22.9775 24.665C22.4443 24.8883 21.8109 25 21.0771 25H17.4883V15.0059ZM19.1289 19.1279H20.7012C21.444 19.1279 21.959 19.0072 22.2461 18.7656C22.5332 18.5241 22.6768 18.1709 22.6768 17.7061C22.6768 17.2321 22.5059 16.8903 22.1641 16.6807C21.8268 16.471 21.2891 16.3662 20.5508 16.3662H19.1289V19.1279ZM19.1289 20.4541V23.626H20.8584C21.624 23.626 22.1618 23.4779 22.4717 23.1816C22.7816 22.8854 22.9365 22.4844 22.9365 21.9785C22.9365 21.6686 22.8659 21.3997 22.7246 21.1719C22.5879 20.944 22.3623 20.7686 22.0479 20.6455C21.7334 20.5179 21.3096 20.4541 20.7764 20.4541H19.1289ZM33.1494 17.4326V25H31.8848L31.666 23.9814H31.5771C31.4176 24.2412 31.2148 24.4577 30.9688 24.6309C30.7227 24.7995 30.4492 24.9248 30.1484 25.0068C29.8477 25.0934 29.5309 25.1367 29.1982 25.1367C28.6286 25.1367 28.141 25.041 27.7354 24.8496C27.3343 24.6536 27.0267 24.3529 26.8125 23.9473C26.5983 23.5417 26.4912 23.0176 26.4912 22.375V17.4326H28.1045V22.0742C28.1045 22.6621 28.223 23.1019 28.46 23.3936C28.7015 23.6852 29.0752 23.8311 29.5811 23.8311C30.0687 23.8311 30.4561 23.7308 30.7432 23.5303C31.0303 23.3298 31.2331 23.0335 31.3516 22.6416C31.4746 22.2497 31.5361 21.7689 31.5361 21.1992V17.4326H33.1494ZM38.2695 23.8379C38.4792 23.8379 38.6865 23.8197 38.8916 23.7832C39.0967 23.7422 39.2835 23.6943 39.4521 23.6396V24.8564C39.2744 24.9339 39.0443 25 38.7617 25.0547C38.4792 25.1094 38.1852 25.1367 37.8799 25.1367C37.4515 25.1367 37.0664 25.0661 36.7246 24.9248C36.3828 24.779 36.1117 24.5306 35.9111 24.1797C35.7106 23.8288 35.6104 23.3434 35.6104 22.7236V18.6562H34.5781V17.9385L35.6855 17.3711L36.2119 15.751H37.2236V17.4326H39.3906V18.6562H37.2236V22.7031C37.2236 23.0859 37.3193 23.3708 37.5107 23.5576C37.7021 23.7445 37.9551 23.8379 38.2695 23.8379ZM43.8066 23.8379C44.0163 23.8379 44.2236 23.8197 44.4287 23.7832C44.6338 23.7422 44.8206 23.6943 44.9893 23.6396V24.8564C44.8115 24.9339 44.5814 25 44.2988 25.0547C44.0163 25.1094 43.7223 25.1367 43.417 25.1367C42.9886 25.1367 42.6035 25.0661 42.2617 24.9248C41.9199 24.779 41.6488 24.5306 41.4482 24.1797C41.2477 23.8288 41.1475 23.3434 41.1475 22.7236V18.6562H40.1152V17.9385L41.2227 17.3711L41.749 15.751H42.7607V17.4326H44.9277V18.6562H42.7607V22.7031C42.7607 23.0859 42.8564 23.3708 43.0479 23.5576C43.2393 23.7445 43.4922 23.8379 43.8066 23.8379ZM53.2266 21.1992C53.2266 21.8281 53.1445 22.3864 52.9805 22.874C52.8164 23.3617 52.5771 23.7741 52.2627 24.1113C51.9482 24.444 51.57 24.6992 51.1279 24.877C50.6859 25.0501 50.1868 25.1367 49.6309 25.1367C49.1113 25.1367 48.6351 25.0501 48.2021 24.877C47.7692 24.6992 47.3932 24.444 47.0742 24.1113C46.7598 23.7741 46.516 23.3617 46.3428 22.874C46.1696 22.3864 46.083 21.8281 46.083 21.1992C46.083 20.3652 46.2266 19.6589 46.5137 19.0801C46.8053 18.4967 47.2201 18.0524 47.7578 17.7471C48.2956 17.4417 48.9359 17.2891 49.6787 17.2891C50.376 17.2891 50.9912 17.4417 51.5244 17.7471C52.0576 18.0524 52.4746 18.4967 52.7754 19.0801C53.0762 19.6634 53.2266 20.3698 53.2266 21.1992ZM47.7373 21.1992C47.7373 21.7507 47.8034 22.2223 47.9355 22.6143C48.0723 23.0062 48.2819 23.307 48.5645 23.5166C48.847 23.7217 49.2116 23.8242 49.6582 23.8242C50.1048 23.8242 50.4694 23.7217 50.752 23.5166C51.0345 23.307 51.2419 23.0062 51.374 22.6143C51.5062 22.2223 51.5723 21.7507 51.5723 21.1992C51.5723 20.6478 51.5062 20.1807 51.374 19.7979C51.2419 19.4105 51.0345 19.1165 50.752 18.916C50.4694 18.7109 50.1025 18.6084 49.6514 18.6084C48.986 18.6084 48.5007 18.8317 48.1953 19.2783C47.89 19.7249 47.7373 20.3652 47.7373 21.1992ZM59.0166 17.2891C59.8688 17.2891 60.5319 17.5101 61.0059 17.9521C61.4844 18.3896 61.7236 19.0938 61.7236 20.0645V25H60.1172V20.3652C60.1172 19.7773 59.9964 19.3376 59.7549 19.0459C59.5133 18.7497 59.1396 18.6016 58.6338 18.6016C57.9001 18.6016 57.3896 18.8271 57.1025 19.2783C56.82 19.7295 56.6787 20.3835 56.6787 21.2402V25H55.0723V17.4326H56.3232L56.5488 18.458H56.6377C56.8018 18.1937 57.0046 17.9772 57.2461 17.8086C57.4922 17.6354 57.7656 17.5055 58.0664 17.4189C58.3717 17.3324 58.6885 17.2891 59.0166 17.2891Z" fill="white"/>
</svg>
